<svg width="862" height="705" viewBox="0 0 862 705" fill="none" xmlns="http://www.w3.org/2000/svg">
<g opacity="0.5" filter="url(#filter0_f_501_8503)">
<circle cx="166.907" cy="214.499" r="29.2547" transform="rotate(-11.5005 166.907 214.499)" fill="url(#paint0_radial_501_8503)"/>
</g>
<path d="M186.79 211.3C184.249 211.789 181.617 211.255 179.467 209.815C177.317 208.375 175.821 206.145 175.305 203.609C172.765 204.13 170.122 203.625 167.951 202.206C165.781 200.786 164.26 198.567 163.719 196.03C161.62 196.14 159.608 196.902 157.963 198.209L153.292 201.918C151.612 203.25 150.4 205.082 149.83 207.149L148.205 212.951C147.635 215.028 147.731 217.231 148.48 219.25L150.556 224.811C151.313 226.825 152.69 228.547 154.487 229.73L159.452 233.029C161.241 234.207 163.355 234.791 165.495 234.698L171.458 234.446C173.586 234.324 175.622 233.535 177.277 232.193L181.947 228.483C183.627 227.146 184.838 225.309 185.406 223.238L187.034 217.451C187.592 215.425 187.506 213.276 186.79 211.3ZM163.383 224.851C162.906 224.948 162.411 224.902 161.961 224.718C161.511 224.533 161.125 224.22 160.853 223.816C160.581 223.413 160.434 222.938 160.432 222.451C160.43 221.964 160.572 221.488 160.841 221.082C161.109 220.676 161.492 220.359 161.941 220.171C162.39 219.983 162.884 219.932 163.362 220.025C163.84 220.118 164.279 220.35 164.625 220.693C164.971 221.035 165.207 221.473 165.304 221.95C165.43 222.589 165.299 223.252 164.939 223.795C164.58 224.338 164.021 224.718 163.383 224.851ZM163.342 212.305C162.862 212.418 162.359 212.384 161.898 212.208C161.438 212.031 161.041 211.721 160.759 211.316C160.477 210.912 160.323 210.432 160.317 209.939C160.312 209.446 160.454 208.963 160.726 208.552C160.998 208.14 161.387 207.82 161.844 207.633C162.3 207.446 162.802 207.4 163.284 207.502C163.766 207.603 164.207 207.847 164.55 208.202C164.892 208.557 165.119 209.007 165.203 209.493C165.307 210.123 165.164 210.768 164.803 211.295C164.442 211.822 163.892 212.189 163.267 212.32L163.342 212.305ZM177.36 219.497C176.883 219.594 176.388 219.547 175.938 219.363C175.487 219.179 175.101 218.865 174.829 218.461C174.557 218.058 174.411 217.583 174.409 217.096C174.407 216.61 174.549 216.133 174.817 215.727C175.086 215.322 175.469 215.004 175.918 214.816C176.366 214.628 176.861 214.577 177.339 214.67C177.816 214.763 178.256 214.995 178.602 215.338C178.947 215.681 179.183 216.118 179.28 216.595C179.344 216.918 179.343 217.25 179.277 217.572C179.211 217.895 179.081 218.2 178.895 218.472C178.709 218.744 178.471 218.975 178.195 219.154C177.919 219.332 177.609 219.454 177.285 219.512L177.36 219.497Z" fill="black" fill-opacity="0.32"/>
<g opacity="0.5" filter="url(#filter1_f_501_8503)">
<circle cx="790.406" cy="518.001" r="44.0941" transform="rotate(33.4995 790.406 518.001)" fill="url(#paint1_radial_501_8503)"/>
</g>
<path d="M813.108 532.98C810.126 530.96 808.061 527.845 807.362 524.312C806.663 520.779 807.387 517.112 809.375 514.109C806.362 512.122 804.257 509.024 803.518 505.492C802.779 501.959 803.467 498.278 805.431 495.25C803.257 493.292 800.528 492.062 797.622 491.729L789.375 490.783C786.412 490.441 783.416 491.05 780.822 492.524L773.513 496.634C770.908 498.116 768.834 500.379 767.584 503.103L764.155 510.619C762.918 513.346 762.577 516.395 763.182 519.328L764.821 527.46C765.423 530.38 766.929 533.035 769.126 535.05L775.242 540.669C777.457 542.643 780.236 543.871 783.186 544.178L791.432 545.124C794.402 545.461 797.401 544.845 799.998 543.366L807.295 539.273C809.837 537.828 811.868 535.629 813.108 532.98ZM776.738 523.281C776.173 522.908 775.732 522.375 775.47 521.75C775.208 521.125 775.137 520.437 775.266 519.772C775.396 519.108 775.719 518.496 776.196 518.015C776.673 517.534 777.282 517.205 777.945 517.07C778.609 516.935 779.298 517 779.925 517.256C780.551 517.513 781.088 517.949 781.467 518.511C781.846 519.072 782.049 519.734 782.052 520.411C782.055 521.088 781.857 521.751 781.484 522.316C780.979 523.069 780.197 523.592 779.309 523.773C778.421 523.954 777.497 523.777 776.738 523.281ZM789.044 510.893C788.46 510.532 787.999 510.004 787.719 509.378C787.439 508.751 787.354 508.055 787.475 507.38C787.596 506.704 787.916 506.08 788.396 505.59C788.875 505.099 789.491 504.763 790.163 504.626C790.836 504.489 791.534 504.558 792.167 504.822C792.8 505.087 793.339 505.536 793.714 506.11C794.089 506.685 794.282 507.359 794.27 508.045C794.257 508.731 794.039 509.397 793.643 509.958C793.125 510.68 792.349 511.175 791.475 511.338C790.602 511.502 789.699 511.322 788.956 510.835L789.044 510.893ZM795.761 531.766C795.197 531.392 794.755 530.859 794.494 530.235C794.232 529.61 794.161 528.922 794.29 528.257C794.419 527.592 794.743 526.981 795.219 526.5C795.696 526.019 796.305 525.69 796.969 525.555C797.632 525.42 798.321 525.484 798.948 525.741C799.575 525.997 800.112 526.434 800.49 526.995C800.869 527.557 801.073 528.218 801.076 528.895C801.079 529.573 800.881 530.236 800.507 530.8C800.252 531.181 799.924 531.507 799.542 531.759C799.159 532.011 798.731 532.184 798.281 532.268C797.831 532.353 797.368 532.347 796.92 532.251C796.473 532.154 796.049 531.97 795.673 531.708L795.761 531.766Z" fill="black" fill-opacity="0.32"/>
<g opacity="0.5" filter="url(#filter2_f_501_8503)">
<circle cx="99.4479" cy="557.168" r="61.0576" transform="rotate(-158.874 99.4479 557.168)" fill="url(#paint2_radial_501_8503)"/>
</g>
<path d="M61.4802 542.65C66.5177 544.659 70.5593 548.575 72.7274 553.546C74.8954 558.518 75.0148 564.144 73.0598 569.202C78.1322 571.153 82.2279 575.03 84.4543 579.987C86.6808 584.945 86.8574 590.581 84.9457 595.669C88.774 597.847 93.1863 598.776 97.5679 598.328L110.002 597.058C114.471 596.605 118.681 594.742 122.022 591.738L131.445 583.334C134.799 580.313 137.119 576.316 138.079 571.906L140.696 559.745C141.636 555.335 141.153 550.74 139.318 546.621L134.283 535.189C132.456 531.089 129.383 527.67 125.502 525.415L114.693 519.123C110.799 516.934 106.316 516.025 101.877 516.525L89.4427 517.795C84.9667 518.258 80.7536 520.131 77.4115 523.144L67.9991 531.519C64.7259 534.465 62.4481 538.354 61.4802 542.65ZM118.104 545.181C119.055 545.548 119.876 546.19 120.463 547.024C121.049 547.858 121.376 548.847 121.4 549.867C121.425 550.887 121.146 551.89 120.6 552.752C120.054 553.613 119.265 554.293 118.332 554.706C117.399 555.119 116.365 555.246 115.361 555.071C114.356 554.896 113.426 554.427 112.687 553.723C111.949 553.019 111.436 552.113 111.213 551.117C110.99 550.122 111.068 549.083 111.435 548.132C111.935 546.862 112.915 545.84 114.163 545.287C115.412 544.735 116.827 544.696 118.104 545.181ZM104.001 567.372C104.976 567.715 105.825 568.343 106.438 569.174C107.052 570.005 107.402 571.002 107.442 572.034C107.483 573.067 107.212 574.087 106.665 574.964C106.119 575.841 105.321 576.533 104.376 576.951C103.432 577.37 102.383 577.494 101.366 577.309C100.35 577.124 99.4124 576.638 98.6754 575.914C97.9384 575.19 97.436 574.261 97.2332 573.248C97.0305 572.235 97.1367 571.184 97.5383 570.232C98.0661 569.003 99.0487 568.025 100.281 567.502C101.513 566.98 102.899 566.954 104.149 567.429L104.001 567.372ZM87.3853 538.839C88.3366 539.207 89.1576 539.848 89.7444 540.682C90.3311 541.517 90.6574 542.506 90.6818 543.526C90.7063 544.545 90.4278 545.549 89.8817 546.41C89.3356 547.272 88.5463 547.952 87.6137 548.365C86.6811 548.777 85.6471 548.904 84.6423 548.729C83.6376 548.554 82.7073 548.086 81.969 547.382C81.2308 546.678 80.7178 545.771 80.4949 544.776C80.272 543.781 80.3492 542.742 80.7168 541.791C80.9691 541.149 81.3467 540.564 81.8277 540.07C82.3087 539.576 82.8833 539.183 83.518 538.913C84.1527 538.644 84.8347 538.503 85.5242 538.501C86.2137 538.498 86.8969 538.632 87.5338 538.897L87.3853 538.839Z" fill="black" fill-opacity="0.32"/>
<g opacity="0.5" filter="url(#filter3_f_501_8503)">
<circle cx="484.907" cy="352.625" r="217.5" fill="url(#paint3_radial_501_8503)"/>
</g>
<path d="M672.143 352.971C647.435 352.704 623.829 342.7 606.452 325.133C589.075 307.566 579.329 283.854 579.331 259.144C554.571 259.183 530.8 249.434 513.197 232.022C495.595 214.61 485.588 190.945 485.359 166.187C465.513 163.217 445.235 166.513 427.351 175.613L376.595 201.426C358.343 210.69 343.513 225.521 334.249 243.772L308.001 294.964C298.71 313.307 295.413 334.104 298.574 354.421L307.421 410.398C310.669 430.685 320.265 449.419 334.829 463.91L374.999 504.226C389.497 518.648 408.17 528.137 428.366 531.344L484.634 540.335C504.776 543.242 525.323 539.742 543.366 530.329L594.123 504.516C612.384 495.198 627.213 480.318 636.468 462.025L662.717 410.979C671.789 393.085 675.083 372.816 672.143 352.971ZM427.351 435.197C422.705 435.197 418.162 433.819 414.299 431.237C410.436 428.656 407.425 424.987 405.646 420.694C403.868 416.401 403.403 411.678 404.309 407.12C405.216 402.563 407.453 398.377 410.739 395.092C414.025 391.806 418.211 389.568 422.768 388.662C427.325 387.756 432.049 388.221 436.342 389.999C440.634 391.777 444.303 394.788 446.885 398.652C449.466 402.515 450.844 407.057 450.844 411.704C450.806 417.923 448.319 423.876 443.921 428.274C439.524 432.671 433.57 435.159 427.351 435.197ZM450.844 317.731C446.139 317.875 441.499 316.601 437.527 314.076C433.554 311.55 430.432 307.89 428.564 303.569C426.697 299.247 426.171 294.465 427.054 289.841C427.937 285.218 430.189 280.966 433.518 277.637C436.846 274.309 441.098 272.057 445.722 271.174C450.346 270.29 455.128 270.816 459.449 272.684C463.77 274.551 467.431 277.673 469.956 281.646C472.482 285.619 473.755 290.258 473.612 294.964C473.388 301.056 470.818 306.826 466.441 311.068C462.063 315.311 456.215 317.698 450.119 317.731H450.844ZM568.309 411.704C563.663 411.704 559.121 410.326 555.257 407.744C551.394 405.163 548.383 401.494 546.605 397.201C544.826 392.908 544.361 388.185 545.268 383.627C546.174 379.07 548.412 374.884 551.697 371.599C554.983 368.313 559.169 366.075 563.726 365.169C568.283 364.262 573.007 364.728 577.3 366.506C581.592 368.284 585.262 371.295 587.843 375.159C590.425 379.022 591.802 383.564 591.802 388.211C591.784 391.352 591.14 394.458 589.907 397.348C588.674 400.237 586.878 402.852 584.623 405.039C582.369 407.227 579.7 408.943 576.775 410.087C573.849 411.231 570.725 411.781 567.584 411.704H568.309Z" fill="black" fill-opacity="0.32"/>
<defs>
<filter id="filter0_f_501_8503" x="119.55" y="167.142" width="94.7138" height="94.7138" filterUnits="userSpaceOnUse" color-interpolation-filters="sRGB">
<feFlood flood-opacity="0" result="BackgroundImageFix"/>
<feBlend mode="normal" in="SourceGraphic" in2="BackgroundImageFix" result="shape"/>
<feGaussianBlur stdDeviation="9.04821" result="effect1_foregroundBlur_501_8503"/>
</filter>
<filter id="filter1_f_501_8503" x="719.031" y="446.626" width="142.749" height="142.749" filterUnits="userSpaceOnUse" color-interpolation-filters="sRGB">
<feFlood flood-opacity="0" result="BackgroundImageFix"/>
<feBlend mode="normal" in="SourceGraphic" in2="BackgroundImageFix" result="shape"/>
<feGaussianBlur stdDeviation="13.6379" result="effect1_foregroundBlur_501_8503"/>
</filter>
<filter id="filter2_f_501_8503" x="0.604839" y="458.325" width="197.686" height="197.686" filterUnits="userSpaceOnUse" color-interpolation-filters="sRGB">
<feFlood flood-opacity="0" result="BackgroundImageFix"/>
<feBlend mode="normal" in="SourceGraphic" in2="BackgroundImageFix" result="shape"/>
<feGaussianBlur stdDeviation="18.8845" result="effect1_foregroundBlur_501_8503"/>
</filter>
<filter id="filter3_f_501_8503" x="132.865" y="0.583664" width="704.083" height="704.083" filterUnits="userSpaceOnUse" color-interpolation-filters="sRGB">
<feFlood flood-opacity="0" result="BackgroundImageFix"/>
<feBlend mode="normal" in="SourceGraphic" in2="BackgroundImageFix" result="shape"/>
<feGaussianBlur stdDeviation="67.2707" result="effect1_foregroundBlur_501_8503"/>
</filter>
<radialGradient id="paint0_radial_501_8503" cx="0" cy="0" r="1" gradientUnits="userSpaceOnUse" gradientTransform="translate(163.981 217.246) rotate(78.0338) scale(30.8892 29.2942)">
<stop stop-color="#3D58DB"/>
<stop offset="0.526042" stop-color="#3D58DB"/>
<stop offset="1" stop-color="#3D58DB" stop-opacity="0.32"/>
</radialGradient>
<radialGradient id="paint1_radial_501_8503" cx="0" cy="0" r="1" gradientUnits="userSpaceOnUse" gradientTransform="translate(785.996 522.142) rotate(78.0338) scale(46.5577 44.1536)">
<stop stop-color="#3D58DB"/>
<stop offset="0.526042" stop-color="#3D58DB"/>
<stop offset="1" stop-color="#3D58DB" stop-opacity="0.32"/>
</radialGradient>
<radialGradient id="paint2_radial_501_8503" cx="0" cy="0" r="1" gradientUnits="userSpaceOnUse" gradientTransform="translate(93.3419 562.902) rotate(78.0338) scale(64.4689 61.14)">
<stop stop-color="#3D58DB"/>
<stop offset="0.526042" stop-color="#3D58DB"/>
<stop offset="1" stop-color="#3D58DB" stop-opacity="0.32"/>
</radialGradient>
<radialGradient id="paint3_radial_501_8503" cx="0" cy="0" r="1" gradientUnits="userSpaceOnUse" gradientTransform="translate(463.156 373.049) rotate(78.0338) scale(229.652 217.794)">
<stop stop-color="#3D58DB"/>
<stop offset="0.526042" stop-color="#3D58DB"/>
<stop offset="1" stop-color="#3D58DB" stop-opacity="0.32"/>
</radialGradient>
</defs>
</svg>
