<svg width="972" height="705" viewBox="0 0 972 705" fill="none" xmlns="http://www.w3.org/2000/svg">
<g opacity="0.5" filter="url(#filter0_f_501_8502)">
<circle cx="548.5" cy="352.625" r="217.5" fill="url(#paint0_radial_501_8502)"/>
</g>
<path d="M589.752 503.313H477.034V540.889H589.752V503.313Z" fill="black" fill-opacity="0.32"/>
<path d="M533.381 165.125C505.408 165.151 478.172 174.097 455.631 190.664C433.09 207.23 416.418 230.554 408.039 257.244C399.659 283.935 400.009 312.603 409.036 339.082C418.063 365.561 435.298 388.471 458.236 404.483V465.732H608.527V404.483C631.465 388.471 648.7 365.561 657.727 339.082C666.754 312.603 667.104 283.935 658.724 257.244C650.345 230.554 633.673 207.23 611.132 190.664C588.591 174.097 561.355 165.151 533.381 165.125Z" fill="black" fill-opacity="0.32"/>
<g opacity="0.5" filter="url(#filter1_f_501_8502)">
<circle cx="131.204" cy="359.205" r="81" transform="rotate(-15 131.204 359.205)" fill="url(#paint1_radial_501_8502)"/>
</g>
<path d="M170.524 338.821L179.335 371.705L190.297 368.768L181.486 335.884L170.524 338.821Z" fill="black" fill-opacity="0.32"/>
<path d="M76.269 381.704C78.4633 389.862 83.2023 397.109 89.7973 402.39C96.3923 407.671 104.5 410.711 112.941 411.07C121.383 411.428 129.719 409.085 136.738 404.381C143.758 399.678 149.094 392.859 151.972 384.916L169.841 380.128L158.092 336.283L140.224 341.071C133.76 335.63 125.729 332.393 117.298 331.83C108.868 331.266 100.477 333.405 93.3454 337.936C86.2137 342.467 80.7127 349.154 77.6418 357.025C74.5708 364.896 74.0899 373.541 76.269 381.704Z" fill="black" fill-opacity="0.32"/>
<g opacity="0.5" filter="url(#filter2_f_501_8502)">
<circle cx="882.935" cy="502.934" r="54.6451" transform="rotate(19.816 882.935 502.934)" fill="url(#paint2_radial_501_8502)"/>
</g>
<path d="M882.352 533.237L863.678 526.508L861.435 532.733L880.109 539.462L882.352 533.237Z" fill="black" fill-opacity="0.32"/>
<path d="M893.201 473.843C888.565 472.177 883.519 472.034 878.795 473.433C874.072 474.832 869.918 477.7 866.936 481.622C863.955 485.544 862.301 490.314 862.216 495.239C862.131 500.165 863.618 504.989 866.463 509.012L862.806 519.159L887.705 528.13L891.361 517.983C896.117 516.7 900.34 513.933 903.417 510.086C906.493 506.238 908.262 501.509 908.467 496.587C908.672 491.665 907.303 486.806 904.557 482.716C901.812 478.625 897.834 475.517 893.201 473.843Z" fill="black" fill-opacity="0.32"/>
<g opacity="0.5" filter="url(#filter3_f_501_8502)">
<circle cx="811.088" cy="182.09" r="68.5032" transform="rotate(5.6457 811.088 182.09)" fill="url(#paint3_radial_501_8502)"/>
</g>
<path d="M821.809 225.949L793.073 223.109L792.126 232.688L820.862 235.529L821.809 225.949Z" fill="black" fill-opacity="0.32"/>
<path d="M815.961 138.311C808.829 137.613 801.66 139.207 795.496 142.862C789.332 146.518 784.494 152.044 781.685 158.637C778.876 165.23 778.243 172.547 779.877 179.525C781.511 186.503 785.327 192.778 790.771 197.439L789.228 213.053L827.543 216.841L829.086 201.226C835.337 197.722 840.309 192.316 843.277 185.793C846.246 179.27 847.058 171.97 845.594 164.955C844.13 157.939 840.468 151.573 835.139 146.781C829.81 141.99 823.092 139.023 815.961 138.311Z" fill="black" fill-opacity="0.32"/>
<defs>
<filter id="filter0_f_501_8502" x="196.459" y="0.583664" width="704.083" height="704.083" filterUnits="userSpaceOnUse" color-interpolation-filters="sRGB">
<feFlood flood-opacity="0" result="BackgroundImageFix"/>
<feBlend mode="normal" in="SourceGraphic" in2="BackgroundImageFix" result="shape"/>
<feGaussianBlur stdDeviation="67.2707" result="effect1_foregroundBlur_501_8502"/>
</filter>
<filter id="filter1_f_501_8502" x="0.0791855" y="228.08" width="262.25" height="262.25" filterUnits="userSpaceOnUse" color-interpolation-filters="sRGB">
<feFlood flood-opacity="0" result="BackgroundImageFix"/>
<feBlend mode="normal" in="SourceGraphic" in2="BackgroundImageFix" result="shape"/>
<feGaussianBlur stdDeviation="25.0525" result="effect1_foregroundBlur_501_8502"/>
</filter>
<filter id="filter2_f_501_8502" x="794.473" y="414.472" width="176.925" height="176.925" filterUnits="userSpaceOnUse" color-interpolation-filters="sRGB">
<feFlood flood-opacity="0" result="BackgroundImageFix"/>
<feBlend mode="normal" in="SourceGraphic" in2="BackgroundImageFix" result="shape"/>
<feGaussianBlur stdDeviation="16.9012" result="effect1_foregroundBlur_501_8502"/>
</filter>
<filter id="filter3_f_501_8502" x="700.205" y="71.2066" width="221.766" height="221.766" filterUnits="userSpaceOnUse" color-interpolation-filters="sRGB">
<feFlood flood-opacity="0" result="BackgroundImageFix"/>
<feBlend mode="normal" in="SourceGraphic" in2="BackgroundImageFix" result="shape"/>
<feGaussianBlur stdDeviation="21.1874" result="effect1_foregroundBlur_501_8502"/>
</filter>
<radialGradient id="paint0_radial_501_8502" cx="0" cy="0" r="1" gradientUnits="userSpaceOnUse" gradientTransform="translate(526.749 373.049) rotate(78.0338) scale(229.652 217.794)">
<stop stop-color="#D45CF2"/>
<stop offset="0.526042" stop-color="#A030B3"/>
<stop offset="1" stop-color="#A030B3" stop-opacity="0.32"/>
</radialGradient>
<radialGradient id="paint1_radial_501_8502" cx="0" cy="0" r="1" gradientUnits="userSpaceOnUse" gradientTransform="translate(123.104 366.811) rotate(78.0338) scale(85.5255 81.1093)">
<stop stop-color="#D45CF2"/>
<stop offset="0.526042" stop-color="#A030B3"/>
<stop offset="1" stop-color="#A030B3" stop-opacity="0.32"/>
</radialGradient>
<radialGradient id="paint2_radial_501_8502" cx="0" cy="0" r="1" gradientUnits="userSpaceOnUse" gradientTransform="translate(877.471 508.065) rotate(78.0338) scale(57.6981 54.7188)">
<stop stop-color="#D45CF2"/>
<stop offset="0.526042" stop-color="#A030B3"/>
<stop offset="1" stop-color="#A030B3" stop-opacity="0.32"/>
</radialGradient>
<radialGradient id="paint3_radial_501_8502" cx="0" cy="0" r="1" gradientUnits="userSpaceOnUse" gradientTransform="translate(804.238 188.522) rotate(78.0338) scale(72.3306 68.5957)">
<stop stop-color="#D45CF2"/>
<stop offset="0.526042" stop-color="#A030B3"/>
<stop offset="1" stop-color="#A030B3" stop-opacity="0.32"/>
</radialGradient>
</defs>
</svg>
