<svg width="939" height="705" viewBox="0 0 939 705" fill="none" xmlns="http://www.w3.org/2000/svg">
<g opacity="0.5" filter="url(#filter0_f_501_8500)">
<circle cx="512.5" cy="352.625" r="217.5" fill="url(#paint0_radial_501_8500)"/>
</g>
<mask id="mask0_501_8500" style="mask-type:luminance" maskUnits="userSpaceOnUse" x="330" y="120" width="377" height="412">
<path fill-rule="evenodd" clip-rule="evenodd" d="M479.356 123.601C483.229 121.438 497.778 116.2 502.047 124.631C506.316 133.062 494.111 142.82 489.957 145.139C485.804 147.458 479.034 147.232 475.184 139.629C471.334 132.026 475.484 125.763 479.356 123.601ZM522.667 206.241C526.54 204.079 541.089 198.841 545.358 207.272C549.627 215.703 537.421 225.461 533.268 227.78C529.114 230.099 522.345 229.873 518.495 222.27C514.645 214.667 518.795 208.403 522.667 206.241ZM518.462 531.489C493.126 531.489 468.519 526.298 445.321 516.082C422.935 506.193 402.852 492.099 385.627 474.144C368.378 456.164 354.832 435.221 345.37 411.894C335.569 387.739 330.59 362.081 330.59 335.663C330.59 309.244 335.569 283.586 345.37 259.413C354.848 236.096 368.378 215.144 385.627 197.19C402.86 179.226 422.943 165.106 445.321 155.235C451.121 152.696 457.227 151.383 463.482 151.383C482.256 151.383 499.133 163.042 506.457 181.083C516.481 205.765 505.346 234.36 481.668 244.81C470.425 249.758 460.301 256.874 451.593 265.942C442.885 275.036 436.059 285.581 431.303 297.301C426.382 309.434 423.904 322.337 423.904 335.663C423.904 348.988 426.382 361.891 431.303 374.016C436.059 385.753 442.885 396.289 451.593 405.365C460.284 414.442 470.408 421.558 481.668 426.524C493.3 431.645 505.678 434.228 518.462 434.228C531.254 434.228 543.632 431.645 555.272 426.524C566.523 421.558 576.639 414.442 585.339 405.365C594.03 396.297 600.865 385.761 605.629 374.016C610.55 361.873 613.044 348.98 613.044 335.663C613.044 308.847 633.963 287.032 659.689 287.032C685.405 287.032 706.333 308.847 706.333 335.663C706.333 362.081 701.362 387.739 691.544 411.894C682.1 435.221 668.553 456.164 651.312 474.144C634.079 492.099 613.98 506.193 591.61 516.082C568.412 526.298 543.797 531.489 518.462 531.489ZM525.449 169.561C529.77 167.149 547.564 160.433 552.328 169.84C557.091 179.248 541.912 191.007 537.278 193.595C532.643 196.183 525.09 195.931 520.794 187.447C516.498 178.963 521.128 171.974 525.449 169.561ZM508.973 138.588C513.294 136.175 530.663 129.696 535.427 139.104C540.19 148.512 525.436 160.034 520.801 162.621C516.167 165.209 508.613 164.957 504.317 156.473C500.021 147.989 504.651 141 508.973 138.588Z" fill="white"/>
</mask>
<g mask="url(#mask0_501_8500)">
<path fill-rule="evenodd" clip-rule="evenodd" d="M316.235 546.513H720.691V104.883H316.235V546.513Z" fill="black" fill-opacity="0.32"/>
</g>
<g opacity="0.5" filter="url(#filter1_f_501_8500)">
<circle cx="860.608" cy="131.797" r="47.8543" transform="rotate(15 860.608 131.797)" fill="url(#paint1_radial_501_8500)"/>
</g>
<mask id="mask1_501_8500" style="mask-type:luminance" maskUnits="userSpaceOnUse" x="826" y="95" width="68" height="74">
<path fill-rule="evenodd" clip-rule="evenodd" d="M863.556 95.5041C864.325 95.3099 867.079 95.0785 867.427 96.7319C867.774 98.3852 865.215 99.5054 864.39 99.7137C863.566 99.922 862.407 99.5698 862.094 98.0788C861.781 96.5878 862.787 95.6982 863.556 95.5041ZM867.212 111.779C867.981 111.585 870.736 111.354 871.083 113.007C871.43 114.66 868.871 115.781 868.046 115.989C867.222 116.197 866.063 115.845 865.75 114.354C865.437 112.863 866.444 111.973 867.212 111.779ZM851.439 167.745C847.064 166.573 843.056 164.538 839.523 161.7C836.115 158.957 833.299 155.594 831.156 151.697C829.009 147.794 827.639 143.551 827.084 139.086C826.51 134.461 826.837 129.8 828.059 125.239C829.282 120.677 831.329 116.477 834.139 112.756C836.855 109.169 840.16 106.177 843.97 103.875C847.776 101.57 851.897 100.061 856.218 99.3921C857.337 99.222 858.452 99.2778 859.532 99.5673C862.774 100.436 865.149 103.23 865.579 106.684C866.168 111.41 862.922 115.832 858.35 116.541C856.18 116.875 854.102 117.636 852.179 118.798C850.255 119.966 848.588 121.471 847.225 123.274C845.813 125.142 844.789 127.255 844.172 129.556C843.556 131.857 843.386 134.2 843.675 136.521C843.953 138.768 844.645 140.903 845.728 142.873C846.809 144.842 848.228 146.54 849.942 147.918C851.714 149.34 853.732 150.359 855.939 150.951C858.148 151.542 860.405 151.669 862.652 151.323C864.824 150.987 866.9 150.226 868.822 149.061C870.743 147.897 872.41 146.394 873.776 144.587C875.188 142.718 876.215 140.607 876.831 138.307C878.072 133.677 882.694 130.878 887.136 132.068C891.576 133.258 894.181 137.993 892.94 142.623C891.718 147.185 889.672 151.386 886.859 155.102C884.149 158.693 880.841 161.683 877.032 163.99C873.226 166.293 869.103 167.796 864.783 168.469C860.304 169.16 855.814 168.917 851.439 167.745ZM869.389 105.575C870.246 105.358 873.629 105.022 874.017 106.867C874.404 108.711 871.239 110.04 870.319 110.272C869.399 110.504 868.106 110.111 867.757 108.448C867.408 106.784 868.531 105.791 869.389 105.575ZM867.977 99.4635C868.835 99.2468 872.134 98.9317 872.521 100.777C872.908 102.621 869.828 103.928 868.908 104.161C867.988 104.393 866.695 104 866.346 102.336C865.997 100.673 867.119 99.6801 867.977 99.4635Z" fill="white"/>
</mask>
<g mask="url(#mask1_501_8500)">
<path fill-rule="evenodd" clip-rule="evenodd" d="M815.822 160.984L885.66 179.697L906.093 103.439L836.255 84.7263L815.822 160.984Z" fill="black" fill-opacity="0.32"/>
</g>
<g opacity="0.5" filter="url(#filter2_f_501_8500)">
<circle cx="777.645" cy="503.644" r="26.3699" transform="rotate(-27.9621 777.645 503.644)" fill="url(#paint2_radial_501_8500)"/>
</g>
<mask id="mask2_501_8500" style="mask-type:luminance" maskUnits="userSpaceOnUse" x="761" y="487" width="35" height="36">
<path fill-rule="evenodd" clip-rule="evenodd" d="M766.148 489.005C766.368 488.665 767.317 487.62 768.022 488.117C768.727 488.614 768.161 489.923 767.925 490.288C767.689 490.653 767.134 490.924 766.498 490.476C765.862 490.028 765.929 489.345 766.148 489.005ZM773.178 493.814C773.398 493.474 774.346 492.429 775.052 492.926C775.757 493.423 775.19 494.732 774.955 495.097C774.719 495.462 774.163 495.733 773.528 495.285C772.892 494.837 772.958 494.154 773.178 493.814ZM786.761 520.218C784.718 521.303 782.512 521.938 780.204 522.107C777.976 522.268 775.753 521.991 773.596 521.281C771.436 520.569 769.447 519.46 767.686 517.984C765.861 516.456 764.362 514.601 763.231 512.471C762.1 510.34 761.403 508.058 761.159 505.69C760.925 503.404 761.119 501.136 761.741 498.95C762.362 496.763 763.377 494.765 764.759 493.012C765.118 492.559 765.554 492.191 766.058 491.924C767.572 491.12 769.432 491.338 770.795 492.479C772.659 494.04 772.985 496.822 771.524 498.678C770.829 499.559 770.317 500.566 770.003 501.67C769.69 502.776 769.591 503.918 769.709 505.066C769.832 506.255 770.185 507.402 770.755 508.476C771.325 509.551 772.077 510.485 772.993 511.252C773.879 511.995 774.88 512.552 775.971 512.911C777.06 513.271 778.181 513.412 779.302 513.33C780.459 513.245 781.567 512.923 782.598 512.376C783.63 511.829 784.517 511.091 785.236 510.18C785.931 509.298 786.442 508.291 786.755 507.187C787.068 506.083 787.168 504.941 787.049 503.79C786.926 502.601 786.575 501.454 786.005 500.38C784.858 498.218 785.611 495.564 787.685 494.463C789.758 493.362 792.38 494.225 793.527 496.387C794.658 498.517 795.356 500.799 795.598 503.167C795.835 505.452 795.639 507.72 795.018 509.908C794.398 512.094 793.38 514.09 792 515.845C790.567 517.662 788.804 519.134 786.761 520.218ZM771.832 490.738C772.077 490.359 773.224 489.056 774.011 489.61C774.798 490.165 774.077 491.763 773.815 492.17C773.552 492.577 772.932 492.88 772.222 492.38C771.513 491.879 771.587 491.118 771.832 490.738ZM769.178 488.946C769.423 488.567 770.547 487.301 771.333 487.855C772.12 488.41 771.424 489.971 771.161 490.378C770.898 490.785 770.278 491.088 769.568 490.588C768.859 490.087 768.933 489.326 769.178 488.946Z" fill="white"/>
</mask>
<g mask="url(#mask2_501_8500)">
<path fill-rule="evenodd" clip-rule="evenodd" d="M771.095 530.089L803.706 512.777L784.803 477.168L752.191 494.48L771.095 530.089Z" fill="black" fill-opacity="0.32"/>
</g>
<g opacity="0.5" filter="url(#filter3_f_501_8500)">
<circle cx="105.788" cy="399.789" r="62.6346" transform="rotate(135 105.788 399.789)" fill="url(#paint3_radial_501_8500)"/>
</g>
<mask id="mask3_501_8500" style="mask-type:luminance" maskUnits="userSpaceOnUse" x="63" y="357" width="88" height="79">
<path fill-rule="evenodd" clip-rule="evenodd" d="M147.064 428.61C146.792 429.571 145.309 432.721 143.288 432.058C141.266 431.396 141.656 427.899 141.948 426.869C142.24 425.839 143.353 424.797 145.176 425.395C147 425.992 147.336 427.65 147.064 428.61ZM127.017 422.347C126.744 423.308 125.262 426.458 123.24 425.795C121.219 425.133 121.608 421.636 121.9 420.606C122.192 419.576 123.306 418.534 125.129 419.132C126.952 419.729 127.289 421.387 127.017 422.347ZM75.9075 369.907C79.9405 365.874 84.6837 362.784 90.0029 360.717C95.1405 358.728 100.581 357.774 106.181 357.891C111.789 358.007 117.279 359.185 122.498 361.392C127.904 363.677 132.781 366.968 136.986 371.174C141.192 375.379 144.483 380.256 146.771 385.664C148.974 390.885 150.156 396.374 150.268 401.978C150.384 407.58 149.435 413.025 147.444 418.158C146.925 419.486 146.162 420.667 145.166 421.662C142.178 424.651 137.635 425.482 133.598 423.776C128.073 421.442 125.293 415.118 127.399 409.685C128.401 407.108 128.88 404.363 128.823 401.534C128.761 398.7 128.169 395.935 127.061 393.312C125.913 390.597 124.253 388.149 122.132 386.028C120.011 383.907 117.563 382.247 114.849 381.1C112.224 379.989 109.46 379.399 106.629 379.34C103.8 379.278 101.056 379.757 98.4732 380.759C95.8063 381.796 93.4249 383.355 91.3899 385.39C89.3536 387.426 87.7943 389.808 86.7565 392.476C85.756 395.057 85.2785 397.8 85.3386 400.63C85.3986 403.457 85.9877 406.222 87.099 408.85C88.2485 411.567 89.9041 414.016 92.0239 416.136C96.2925 420.405 96.4351 427.207 92.34 431.302C88.2463 435.396 81.4423 435.255 77.1737 430.986C72.9683 426.781 69.6752 421.905 67.3929 416.497C65.1832 411.28 64.0058 405.79 63.8881 400.184C63.7732 394.582 64.7291 389.139 66.7159 384.004C68.7824 378.685 71.8744 373.941 75.9075 369.907ZM132.41 428.632C132.106 429.704 130.343 433.606 128.087 432.867C125.831 432.127 126.376 427.839 126.702 426.69C127.027 425.54 128.27 424.378 130.304 425.044C132.339 425.711 132.714 427.56 132.41 428.632ZM139.966 430.945C139.662 432.017 137.928 435.813 135.672 435.073C133.417 434.334 133.931 430.151 134.257 429.002C134.583 427.852 135.825 426.69 137.86 427.356C139.894 428.023 140.269 429.873 139.966 430.945Z" fill="white"/>
</mask>
<g mask="url(#mask3_501_8500)">
<path fill-rule="evenodd" clip-rule="evenodd" d="M105.709 335.322L41.3262 399.706L111.627 470.006L176.01 405.623L105.709 335.322Z" fill="black" fill-opacity="0.32"/>
</g>
<defs>
<filter id="filter0_f_501_8500" x="160.459" y="0.583664" width="704.083" height="704.083" filterUnits="userSpaceOnUse" color-interpolation-filters="sRGB">
<feFlood flood-opacity="0" result="BackgroundImageFix"/>
<feBlend mode="normal" in="SourceGraphic" in2="BackgroundImageFix" result="shape"/>
<feGaussianBlur stdDeviation="67.2707" result="effect1_foregroundBlur_501_8500"/>
</filter>
<filter id="filter1_f_501_8500" x="783.14" y="54.3289" width="154.936" height="154.936" filterUnits="userSpaceOnUse" color-interpolation-filters="sRGB">
<feFlood flood-opacity="0" result="BackgroundImageFix"/>
<feBlend mode="normal" in="SourceGraphic" in2="BackgroundImageFix" result="shape"/>
<feGaussianBlur stdDeviation="14.8009" result="effect1_foregroundBlur_501_8500"/>
</filter>
<filter id="filter2_f_501_8500" x="734.958" y="460.957" width="85.3742" height="85.3742" filterUnits="userSpaceOnUse" color-interpolation-filters="sRGB">
<feFlood flood-opacity="0" result="BackgroundImageFix"/>
<feBlend mode="normal" in="SourceGraphic" in2="BackgroundImageFix" result="shape"/>
<feGaussianBlur stdDeviation="8.15597" result="effect1_foregroundBlur_501_8500"/>
</filter>
<filter id="filter3_f_501_8500" x="4.40933" y="298.41" width="202.758" height="202.758" filterUnits="userSpaceOnUse" color-interpolation-filters="sRGB">
<feFlood flood-opacity="0" result="BackgroundImageFix"/>
<feBlend mode="normal" in="SourceGraphic" in2="BackgroundImageFix" result="shape"/>
<feGaussianBlur stdDeviation="19.3723" result="effect1_foregroundBlur_501_8500"/>
</filter>
<radialGradient id="paint0_radial_501_8500" cx="0" cy="0" r="1" gradientUnits="userSpaceOnUse" gradientTransform="translate(490.749 373.049) rotate(78.0338) scale(229.652 217.794)">
<stop stop-color="#4000C7"/>
<stop offset="0.526042" stop-color="#6623F4"/>
<stop offset="1" stop-color="#905BFF" stop-opacity="0.32"/>
</radialGradient>
<radialGradient id="paint1_radial_501_8500" cx="0" cy="0" r="1" gradientUnits="userSpaceOnUse" gradientTransform="translate(855.822 136.29) rotate(78.0338) scale(50.5279 47.9188)">
<stop stop-color="#4000C7"/>
<stop offset="0.526042" stop-color="#6623F4"/>
<stop offset="1" stop-color="#905BFF" stop-opacity="0.32"/>
</radialGradient>
<radialGradient id="paint2_radial_501_8500" cx="0" cy="0" r="1" gradientUnits="userSpaceOnUse" gradientTransform="translate(775.008 506.12) rotate(78.0338) scale(27.8432 26.4055)">
<stop stop-color="#4000C7"/>
<stop offset="0.526042" stop-color="#6623F4"/>
<stop offset="1" stop-color="#905BFF" stop-opacity="0.32"/>
</radialGradient>
<radialGradient id="paint3_radial_501_8500" cx="0" cy="0" r="1" gradientUnits="userSpaceOnUse" gradientTransform="translate(99.5248 405.671) rotate(78.0338) scale(66.134 62.7191)">
<stop stop-color="#4000C7"/>
<stop offset="0.526042" stop-color="#6623F4"/>
<stop offset="1" stop-color="#905BFF" stop-opacity="0.32"/>
</radialGradient>
</defs>
</svg>
