<svg width="68" height="12" viewBox="0 0 68 12" fill="none" xmlns="http://www.w3.org/2000/svg">
<path d="M5.62442 11.9998C4.32293 11.9998 3.06181 11.5484 2.0559 10.7227C1.05 9.89707 0.361565 8.74802 0.1079 7.47166C-0.145764 6.19515 0.0510088 4.87036 0.664631 3.72273C1.27839 2.5751 2.27103 1.6758 3.47357 1.1781C3.80459 1.04068 4.17288 1.02189 4.51618 1.12493C4.85948 1.22794 5.15676 1.44646 5.35735 1.74346C5.55808 2.04045 5.64998 2.39767 5.61751 2.75466C5.5849 3.11151 5.43005 3.44634 5.17907 3.70226C5.02887 3.84639 4.8551 3.96398 4.66524 4.04952C4.54723 4.11092 4.41723 4.16753 4.30274 4.23613C3.94745 4.45436 3.65199 4.75758 3.44308 5.11838C3.23402 5.47918 3.11799 5.88629 3.10557 6.30299C3.093 6.7197 3.1842 7.13315 3.37109 7.50582C3.55799 7.87848 3.83466 8.19891 4.17613 8.43818C4.51759 8.67744 4.91326 8.82806 5.32728 8.87634C5.74145 8.92476 6.16111 8.86942 6.54859 8.71527C6.93594 8.56113 7.27896 8.31311 7.54674 7.99352C7.81452 7.6738 7.9986 7.29267 8.0823 6.88429C8.10828 6.71589 8.12563 6.54635 8.13439 6.3764C8.13791 6.20559 8.16573 6.0362 8.21697 5.87316C8.33625 5.52478 8.57523 5.23004 8.89143 5.04131C9.20763 4.85258 9.58057 4.78214 9.94377 4.84255C10.307 4.90283 10.637 5.09015 10.8751 5.37106C11.1133 5.65182 11.2441 6.00811 11.2443 6.3764C11.243 7.86676 10.6507 9.29587 9.59708 10.35C8.54347 11.4044 7.11479 11.9977 5.62442 11.9998Z" fill="white"/>
<path d="M23.6968 2.148C23.6474 2.14814 23.5993 2.16381 23.5592 2.19289C23.5191 2.22197 23.4892 2.26276 23.4737 2.30977L21.5638 8.05017H21.5365L19.6266 2.3085C19.6111 2.26163 19.5812 2.2207 19.5411 2.19176C19.501 2.16268 19.4529 2.14701 19.4035 2.14673H16.4505C16.3879 2.14673 16.3277 2.17157 16.2835 2.2159C16.2392 2.26022 16.2142 2.32035 16.2142 2.38303V10.6628C16.2142 10.7254 16.2392 10.7856 16.2835 10.8299C16.3277 10.8742 16.3879 10.8991 16.4505 10.8991H18.2482C18.3109 10.8991 18.371 10.8742 18.4153 10.8299C18.4595 10.7856 18.4845 10.7254 18.4845 10.6628V5.40074C18.4845 5.38479 18.4876 5.36898 18.494 5.35416C18.5003 5.33948 18.5095 5.32621 18.5211 5.31506C18.5328 5.30405 18.5465 5.29544 18.5614 5.28993C18.5765 5.28429 18.5925 5.28189 18.6084 5.28273C18.6344 5.28273 18.6597 5.29078 18.6809 5.30574C18.702 5.32085 18.718 5.34202 18.7266 5.36658L20.522 10.7431C20.5375 10.7902 20.5677 10.8313 20.608 10.8604C20.6482 10.8895 20.6966 10.905 20.7463 10.905H22.3538C22.4035 10.905 22.4519 10.8895 22.4923 10.8604C22.5325 10.8313 22.5626 10.7902 22.5783 10.7431L24.3737 5.36658C24.3824 5.34216 24.3984 5.32099 24.4196 5.30603C24.4406 5.29106 24.4659 5.28288 24.4918 5.28273C24.523 5.28273 24.5531 5.29516 24.5753 5.31732C24.5974 5.33948 24.6099 5.36955 24.6099 5.40074V10.664C24.6099 10.7267 24.6348 10.7867 24.679 10.831C24.7233 10.8753 24.7835 10.9002 24.8462 10.9002H26.6414C26.7041 10.9002 26.7642 10.8753 26.8086 10.831C26.8529 10.7867 26.8777 10.7267 26.8777 10.664V2.38416C26.8777 2.32148 26.8529 2.26135 26.8086 2.21717C26.7642 2.17284 26.7041 2.148 26.6414 2.148H23.6968Z" fill="white"/>
<path d="M37.7425 7.72508C37.7425 8.70431 38.3743 9.30551 39.0782 9.30551C39.3102 9.30777 39.5397 9.2602 39.7516 9.1659C39.9633 9.07147 40.1522 8.93256 40.3055 8.75866C40.3449 8.71532 40.3989 8.68822 40.4572 8.68257C40.5155 8.67678 40.5738 8.69302 40.6208 8.72788L41.7312 9.55466C41.7572 9.57399 41.7791 9.59841 41.7953 9.62651C41.8115 9.6546 41.8218 9.68579 41.8255 9.71812C41.8292 9.7503 41.8261 9.78291 41.8166 9.81397C41.807 9.84502 41.7912 9.87382 41.7702 9.89838C41.1122 10.665 40.1981 11.0796 39.0144 11.0796H38.9022C37.0196 11.0796 35.4946 9.67747 35.4946 7.81952V7.53607C35.4946 5.67812 37.0196 4.27612 38.9022 4.27612H39.0144C40.1957 4.27612 41.1122 4.69424 41.7702 5.45735C41.7911 5.48191 41.8067 5.51057 41.8162 5.54148C41.8255 5.57239 41.8285 5.60486 41.8248 5.63705C41.8211 5.66909 41.811 5.70014 41.7949 5.72809C41.7788 5.75618 41.757 5.78046 41.7312 5.7998L40.6208 6.62658C40.574 6.66158 40.5158 6.67796 40.4575 6.6726C40.3992 6.66709 40.345 6.64013 40.3055 6.59707C40.1522 6.42317 39.9633 6.28426 39.7516 6.18983C39.5397 6.09539 39.3102 6.04782 39.0782 6.05022C38.3696 6.05022 37.7425 6.65029 37.7425 7.62938V7.72508Z" fill="white"/>
<path d="M42.9672 2.34787C42.9672 2.2852 42.992 2.22506 43.0363 2.18074C43.0807 2.13642 43.1408 2.11157 43.2033 2.11157H47.0303C48.9756 2.11157 50.3056 3.2537 50.3056 5.07395V5.20029C50.3056 7.03226 49.0064 8.20036 47.0303 8.20036H45.2267V10.663C45.2267 10.7257 45.2019 10.7858 45.1575 10.8302C45.1132 10.8745 45.0531 10.8993 44.9904 10.8993H43.2033C43.1408 10.8993 43.0807 10.8745 43.0363 10.8302C42.992 10.7858 42.9672 10.7257 42.9672 10.663V2.34787ZM46.6653 6.33296C47.4438 6.33296 48.0378 5.8605 48.0378 5.16486V5.12463C48.0378 4.45963 47.4697 3.98956 46.7161 3.98956H45.2267V6.33296H46.6653Z" fill="white"/>
<path d="M28.0476 9.13201C28.0476 10.2305 28.9547 11.0833 30.2326 11.0833C31.2295 11.0833 31.754 10.6594 32.2135 10.3002C32.2347 10.4441 32.2662 10.5862 32.308 10.7254C32.3222 10.7745 32.3521 10.8176 32.3929 10.8482C32.4339 10.879 32.4836 10.8955 32.5348 10.8955H34.095C34.1577 10.8955 34.2177 10.8707 34.262 10.8263C34.3064 10.782 34.3312 10.7219 34.3312 10.6594V6.98835C34.3312 5.32521 33.2316 4.24449 31.4966 4.24449H31.3217C30.3542 4.23884 29.3999 4.47048 28.5425 4.91895C28.5137 4.93405 28.4884 4.95508 28.4683 4.98049C28.4479 5.00576 28.4331 5.03512 28.4246 5.06646C28.4163 5.0978 28.4145 5.13069 28.4193 5.16273C28.4241 5.19492 28.4354 5.22569 28.4527 5.25321L29.1495 6.37289C29.1799 6.42103 29.2266 6.4566 29.2811 6.47312C29.3356 6.48963 29.3941 6.48596 29.4461 6.46267C30.1228 6.15438 30.6602 6.04456 31.1469 6.04456C31.7847 6.04456 32.1592 6.42964 32.1592 7.08039H31.7092C29.1814 7.08039 28.0476 7.68752 28.0476 9.13201ZM29.9646 9.04703C29.9646 8.49424 30.8563 8.31822 31.9442 8.31822H32.1568V9.02698C31.9796 9.21402 31.766 9.36308 31.5292 9.46458C31.2923 9.56607 31.0372 9.61816 30.7795 9.61759C30.3578 9.61279 29.9598 9.42971 29.9598 9.04703H29.9646Z" fill="white"/>
<path d="M50.8221 9.13198C50.8221 10.2305 51.7292 11.0832 53.0072 11.0832C54.004 11.0832 54.5286 10.6592 54.9881 10.3002C55.0091 10.4441 55.0407 10.5861 55.0825 10.7254C55.0968 10.7745 55.1267 10.8176 55.1675 10.8482C55.2084 10.8788 55.2581 10.8955 55.3092 10.8955H56.8696C56.9322 10.8955 56.9922 10.8706 57.0366 10.8263C57.0809 10.782 57.1057 10.7219 57.1057 10.6592V6.98819C57.1057 5.32518 56.0061 4.24446 54.271 4.24446H54.0938C53.1274 4.23952 52.1746 4.47102 51.3182 4.91892C51.2894 4.93403 51.2641 4.95506 51.2439 4.98033C51.2236 5.00574 51.2088 5.0351 51.2005 5.06644C51.192 5.09777 51.1901 5.13052 51.1949 5.16271C51.1997 5.19489 51.2112 5.22566 51.2284 5.25319L51.9253 6.37287C51.9557 6.42129 52.0025 6.45714 52.0573 6.47366C52.1119 6.49018 52.1708 6.48622 52.2229 6.46265C52.8985 6.15436 53.436 6.04453 53.9226 6.04453C54.5603 6.04453 54.9348 6.42962 54.9348 7.08036H54.4848C51.9607 7.08036 50.8221 7.68749 50.8221 9.13198ZM52.7391 9.047C52.7391 8.49422 53.6321 8.3182 54.7187 8.3182H54.9313V9.02696C54.7544 9.21442 54.5409 9.36362 54.304 9.46526C54.0671 9.56675 53.8119 9.61856 53.554 9.61743C53.1372 9.61277 52.7356 9.42969 52.7356 9.047H52.7391Z" fill="white"/>
<path d="M60.7201 8.42468L61.6812 4.5528C61.6939 4.5017 61.7236 4.45611 61.7645 4.42364C61.8069 4.39103 61.8577 4.37339 61.9113 4.37339H63.5248C63.577 4.37339 63.6278 4.39103 63.6702 4.42364C63.7111 4.45611 63.7408 4.5017 63.7535 4.5528L64.7204 8.42581C64.7275 8.45206 64.743 8.47521 64.7642 8.49159C64.7853 8.50796 64.8122 8.51643 64.839 8.51558C64.8672 8.51587 64.8955 8.5057 64.9166 8.48707C64.9392 8.46844 64.9533 8.44246 64.9576 8.41409L65.4685 4.57892C65.4756 4.52161 65.5038 4.46924 65.5476 4.4314C65.5914 4.39343 65.6464 4.37282 65.7043 4.37339H67.3855C67.4208 4.37254 67.4561 4.37988 67.4886 4.3947C67.521 4.40952 67.5493 4.43155 67.5732 4.45907C67.5958 4.48646 67.6114 4.51878 67.6198 4.55351C67.6283 4.58809 67.6297 4.62423 67.6212 4.65924L66.3226 10.7126C66.3113 10.7665 66.2816 10.8148 66.2379 10.8491C66.1955 10.8834 66.1405 10.9015 66.0854 10.9003H63.9878C63.9356 10.9003 63.8862 10.8835 63.8452 10.8526C63.8043 10.8217 63.7746 10.7784 63.7605 10.7291L62.7428 7.18557H62.6919L61.6742 10.7291C61.6601 10.7784 61.6304 10.8217 61.5895 10.8526C61.5485 10.8835 61.4991 10.9003 61.4483 10.9003H59.3441C59.289 10.9015 59.2352 10.8834 59.192 10.8491C59.1488 10.8148 59.119 10.7665 59.1079 10.7126L57.818 4.65797C57.8105 4.6231 57.8111 4.58696 57.8195 4.55224C57.828 4.51765 57.8441 4.48533 57.8668 4.4578C57.8895 4.43027 57.9183 4.40839 57.9507 4.39343C57.9831 4.37861 58.0186 4.37141 58.0543 4.37212H59.7397C59.7975 4.37169 59.8532 4.3923 59.8968 4.43013C59.9403 4.46796 59.9685 4.52048 59.976 4.57765L60.4875 8.41282C60.4914 8.44119 60.5057 8.46717 60.5274 8.48594C60.5491 8.50457 60.5768 8.51474 60.6055 8.51445C60.6316 8.51332 60.6567 8.50401 60.6772 8.48792C60.6978 8.47182 60.7127 8.44966 60.7201 8.42468Z" fill="white"/>
<path d="M6.14588 1.59422C5.8613 1.75486 5.76207 2.00881 5.90252 2.24624C6.04312 2.48367 6.30652 2.52136 6.58644 2.36439C6.86636 2.20728 7.04239 1.86116 6.92311 1.65564C6.80383 1.45013 6.43653 1.42177 6.14588 1.59422Z" fill="white"/>
<path d="M6.10286 2.83474C5.85823 2.97407 5.77565 3.18906 5.89013 3.39346C6.00475 3.59771 6.23738 3.62962 6.48074 3.49269C6.7241 3.35562 6.86935 3.06272 6.77139 2.88556C6.67328 2.70841 6.34608 2.69415 6.10286 2.83474Z" fill="white"/>
<path d="M6.00049 1.32942C5.71592 1.49006 5.45124 1.45463 5.31672 1.21131C5.18205 0.967992 5.28001 0.723503 5.55993 0.558135C5.83985 0.39278 6.21901 0.412852 6.33829 0.620738C6.45771 0.82861 6.28634 1.16406 6.00049 1.32942Z" fill="white"/>
<path d="M4.90387 0.751914C4.66051 0.892467 4.43142 0.855851 4.31327 0.653879C4.19511 0.451908 4.28263 0.233392 4.52585 0.0940109C4.76921 -0.0453562 5.09515 -0.0311834 5.19439 0.145986C5.29362 0.323156 5.14836 0.612547 4.90387 0.751914Z" fill="white"/>
</svg>
