<svg width="20" height="20" viewBox="0 0 20 20" fill="none" xmlns="http://www.w3.org/2000/svg">
<path fill-rule="evenodd" clip-rule="evenodd" d="M0.527277 2.76511C0 3.82035 0 5.1969 0 7.95V12.05C0 14.8031 0 16.1796 0.527277 17.2349C1.01124 18.2035 1.79654 18.9888 2.76511 19.4727C3.82035 20 5.1969 20 7.95 20H12.05C14.8031 20 16.1796 20 17.2349 19.4727C18.2035 18.9888 18.9888 18.2035 19.4727 17.2349C20 16.1796 20 14.8031 20 12.05V7.95C20 5.1969 20 3.82035 19.4727 2.76511C18.9888 1.79654 18.2035 1.01124 17.2349 0.527277C16.1796 0 14.8031 0 12.05 0H7.95C5.1969 0 3.82035 0 2.76511 0.527277C1.79654 1.01124 1.01124 1.79654 0.527277 2.76511ZM16.5378 4.66204C16.5378 5.32478 16.0005 5.86204 15.3378 5.86204C14.675 5.86204 14.1378 5.32478 14.1378 4.66204C14.1378 3.99929 14.675 3.46204 15.3378 3.46204C16.0005 3.46204 16.5378 3.99929 16.5378 4.66204ZM4.86413 9.99998C4.86413 7.16369 7.1634 4.86443 9.99969 4.86443C11.3617 4.86443 12.668 5.40549 13.6311 6.3686C14.5942 7.3317 15.1352 8.63795 15.1352 9.99998C15.1352 12.8363 12.836 15.1355 9.99969 15.1355C7.1634 15.1355 4.86413 12.8363 4.86413 9.99998ZM6.66665 9.99972C6.66665 11.8407 8.15903 13.333 9.99998 13.333C11.8409 13.333 13.3333 11.8407 13.3333 9.99972C13.3333 8.15877 11.8409 6.66638 9.99998 6.66638C8.15903 6.66638 6.66665 8.15877 6.66665 9.99972Z" fill="white"/>
</svg>
