<svg width="20" height="20" viewBox="0 0 20 20" fill="none" xmlns="http://www.w3.org/2000/svg">
<path fill-rule="evenodd" clip-rule="evenodd" d="M0.527521 2.76511C0.000244141 3.82035 0.000244141 5.1969 0.000244141 7.95V12.05C0.000244141 14.8031 0.000244141 16.1796 0.527521 17.2349C1.01149 18.2035 1.79678 18.9888 2.76535 19.4727C3.8206 20 5.19715 20 7.95024 20H12.0502C14.8033 20 16.1799 20 17.2351 19.4727C18.2037 18.9888 18.989 18.2035 19.473 17.2349C20.0002 16.1796 20.0002 14.8031 20.0002 12.05V7.95C20.0002 5.1969 20.0002 3.82035 19.473 2.76511C18.989 1.79654 18.2037 1.01124 17.2351 0.527277C16.1799 0 14.8033 0 12.0502 0H7.95024C5.19715 0 3.8206 0 2.76535 0.527277C1.79678 1.01124 1.01149 1.79654 0.527521 2.76511ZM5.09179 14.1607C5.74597 14.686 7.21335 14.9998 9.01705 14.9998C12.2459 14.9998 14.8726 12.1376 14.8726 8.6196V8.5578C15.2904 8.35892 15.6092 7.96645 15.7777 7.43872C15.8022 7.36179 15.7812 7.27867 15.7228 7.22198C15.6647 7.16533 15.5794 7.14633 15.5027 7.17294L15.1389 7.29799C15.353 7.03969 15.5113 6.7699 15.5945 6.51415C15.6187 6.43959 15.5967 6.35701 15.5387 6.30396C15.4801 6.25035 15.3955 6.23555 15.3221 6.26605C14.8119 6.47915 14.3605 6.66472 14.0014 6.77573C13.9881 6.77992 13.9744 6.7781 13.9606 6.77045C13.6744 6.61076 12.9579 6.24399 12.4492 6.24982C11.1622 6.27334 10.115 7.3689 10.115 8.69215V8.76452C8.21996 8.39903 7.17254 7.85598 6.03875 6.67092L5.86162 6.48571L5.74378 6.71302C5.12821 7.89919 5.56463 8.9623 6.28396 9.67834C5.96519 9.62967 5.73371 9.5274 5.53883 9.35806C5.46494 9.29354 5.35711 9.28551 5.27442 9.33837C5.19226 9.3905 5.15474 9.48803 5.18128 9.581C5.42337 10.4343 6.07169 11.135 6.75606 11.5537C6.4254 11.5534 6.1533 11.5167 5.87974 11.3416C5.80014 11.2905 5.69657 11.2958 5.62227 11.3543C5.54853 11.4126 5.52014 11.5111 5.55164 11.5995C5.88523 12.5328 6.50885 13.0237 7.54272 13.146C7.01115 13.4556 6.32183 13.7002 5.24532 13.7226C5.14016 13.725 5.04765 13.7924 5.01366 13.8916C4.97963 13.9887 5.01098 14.0967 5.09179 14.1607Z" fill="white"/>
</svg>
