<svg width="58" height="50" viewBox="0 0 58 50" fill="none" xmlns="http://www.w3.org/2000/svg">
<path fill-rule="evenodd" clip-rule="evenodd" d="M21 24.9512C21 24.3989 21.4477 23.9512 22 23.9512H36C36.5523 23.9512 37 24.3989 37 24.9512C37 25.5035 36.5523 25.9512 36 25.9512H22C21.4477 25.9512 21 25.5035 21 24.9512Z" fill="white"/>
<path fill-rule="evenodd" clip-rule="evenodd" d="M28.2929 17.2441C28.6834 16.8535 29.3166 16.8535 29.7071 17.2441L36.7071 24.2441C37.0976 24.6346 37.0976 25.2678 36.7071 25.6583L29.7071 32.6583C29.3166 33.0488 28.6834 33.0488 28.2929 32.6583C27.9024 32.2678 27.9024 31.6346 28.2929 31.2441L34.5858 24.9512L28.2929 18.6583C27.9024 18.2678 27.9024 17.6346 28.2929 17.2441Z" fill="white"/>
<rect x="1" y="0.951172" width="56" height="48" rx="16" stroke="white" stroke-opacity="0.64"/>
</svg>
