<svg width="300" height="300" viewBox="0 0 300 300" fill="none" xmlns="http://www.w3.org/2000/svg">
<g opacity="0.4" filter="url(#filter0_f_241_23681)">
<circle cx="150" cy="150.479" r="96" fill="url(#paint0_radial_241_23681)"/>
</g>
<ellipse cx="150.36" cy="179.842" rx="51.8805" ry="23.058" fill="url(#paint1_linear_241_23681)"/>
<path d="M200.319 179.842C200.319 182.4 199.16 184.982 196.771 187.492C194.373 190.012 190.812 192.369 186.264 194.39C177.174 198.43 164.482 200.978 150.36 200.978C136.238 200.978 123.545 198.43 114.455 194.39C109.907 192.369 106.346 190.012 103.948 187.492C101.559 184.982 100.401 182.4 100.401 179.842C100.401 177.283 101.559 174.701 103.948 172.191C106.346 169.671 109.907 167.314 114.455 165.293C123.545 161.253 136.238 158.705 150.36 158.705C164.482 158.705 177.174 161.253 186.264 165.293C190.812 167.314 194.373 169.671 196.771 172.191C199.16 174.701 200.319 177.283 200.319 179.842Z" stroke="url(#paint2_linear_241_23681)" stroke-width="3.843"/>
<path d="M150.039 151.019C116.788 151.019 89.8322 164.497 89.8322 181.123C89.8322 197.749 116.788 211.226 150.039 211.226" stroke="url(#paint3_linear_241_23681)" stroke-width="0.640501"/>
<circle cx="150.133" cy="211.32" r="2.562" transform="rotate(-165.903 150.133 211.32)" fill="url(#paint4_linear_241_23681)"/>
<path d="M150.36 150.379C183.611 150.379 210.567 136.901 210.567 120.275C210.567 103.649 183.611 90.1716 150.36 90.1716" stroke="url(#paint5_linear_241_23681)" stroke-width="0.640501"/>
<circle cx="150.266" cy="90.0778" r="2.562" transform="rotate(14.0967 150.266 90.0778)" fill="url(#paint6_linear_241_23681)"/>
<ellipse cx="150.36" cy="151.019" rx="51.8805" ry="23.058" fill="url(#paint7_linear_241_23681)"/>
<path d="M200.319 151.019C200.319 153.578 199.16 156.16 196.771 158.67C194.373 161.19 190.812 163.547 186.264 165.568C177.174 169.608 164.482 172.156 150.36 172.156C136.238 172.156 123.545 169.608 114.455 165.568C109.907 163.547 106.346 161.19 103.948 158.67C101.559 156.16 100.401 153.578 100.401 151.019C100.401 148.461 101.559 145.879 103.948 143.369C106.346 140.848 109.907 138.492 114.455 136.47C123.545 132.43 136.238 129.883 150.36 129.883C164.482 129.883 177.174 132.43 186.264 136.47C190.812 138.492 194.373 140.848 196.771 143.369C199.16 145.879 200.319 148.461 200.319 151.019Z" stroke="url(#paint8_linear_241_23681)" stroke-width="3.843"/>
<ellipse cx="150.36" cy="122.196" rx="51.8805" ry="23.058" transform="rotate(-180 150.36 122.196)" fill="url(#paint9_linear_241_23681)"/>
<path d="M200.319 122.196C200.319 124.755 199.16 127.337 196.771 129.847C194.373 132.367 190.812 134.724 186.264 136.745C177.174 140.785 164.482 143.333 150.36 143.333C136.238 143.333 123.545 140.785 114.455 136.745C109.907 134.724 106.346 132.367 103.948 129.847C101.559 127.337 100.401 124.755 100.401 122.196C100.401 119.638 101.559 117.056 103.948 114.546C106.346 112.026 109.907 109.669 114.455 107.648C123.545 103.608 136.238 101.06 150.36 101.06C164.482 101.06 177.174 103.608 186.264 107.648C190.812 109.669 194.373 112.026 196.771 114.546C199.16 117.056 200.319 119.638 200.319 122.196Z" stroke="url(#paint10_linear_241_23681)" stroke-width="3.843"/>
<path fill-rule="evenodd" clip-rule="evenodd" d="M128.41 117.726C128.41 117.195 127.98 116.765 127.449 116.765C126.919 116.765 126.489 117.195 126.489 117.726L126.489 119.839L124.994 118.345C124.619 117.97 124.011 117.97 123.636 118.345C123.261 118.72 123.261 119.329 123.636 119.704L125.151 121.22L122.995 121.22C122.464 121.22 122.034 121.65 122.034 122.18C122.034 122.711 122.464 123.141 122.995 123.141L125.183 123.141L123.636 124.689C123.261 125.064 123.261 125.672 123.636 126.047C124.011 126.423 124.619 126.423 124.995 126.047L126.52 124.522L126.52 126.667C126.52 127.197 126.95 127.627 127.481 127.627C128.011 127.627 128.442 127.197 128.442 126.667V124.554L129.935 126.047C130.31 126.423 130.919 126.423 131.294 126.047C131.669 125.672 131.669 125.064 131.294 124.689L129.778 123.173H131.935C132.466 123.173 132.896 122.743 132.896 122.212C132.896 121.682 132.466 121.251 131.935 121.251H129.746L131.294 119.704C131.669 119.329 131.669 118.72 131.294 118.345C130.919 117.97 130.31 117.97 129.935 118.345L128.41 119.87V117.726ZM142.711 116.765C143.242 116.765 143.672 117.195 143.672 117.726V119.87L145.197 118.345C145.572 117.97 146.181 117.97 146.556 118.345C146.931 118.72 146.931 119.329 146.556 119.704L145.008 121.251H147.197C147.728 121.251 148.158 121.682 148.158 122.212C148.158 122.743 147.728 123.173 147.197 123.173H145.04L146.556 124.689C146.931 125.064 146.931 125.672 146.556 126.047C146.181 126.423 145.572 126.423 145.197 126.047L143.703 124.554V126.667C143.703 127.197 143.273 127.627 142.743 127.627C142.212 127.627 141.782 127.197 141.782 126.667L141.782 124.522L140.256 126.047C139.881 126.423 139.273 126.423 138.898 126.047C138.523 125.672 138.523 125.064 138.898 124.689L140.445 123.141L138.257 123.141C137.726 123.141 137.296 122.711 137.296 122.18C137.296 121.65 137.726 121.22 138.257 121.22L140.413 121.22L138.898 119.704C138.522 119.329 138.522 118.72 138.898 118.345C139.273 117.97 139.881 117.97 140.256 118.345L141.75 119.839V117.726C141.75 117.195 142.181 116.765 142.711 116.765ZM157.973 116.765C158.503 116.765 158.934 117.195 158.934 117.726V119.87L160.459 118.345C160.834 117.97 161.442 117.97 161.818 118.345C162.193 118.72 162.193 119.329 161.818 119.704L160.27 121.251H162.459C162.989 121.251 163.42 121.682 163.42 122.212C163.42 122.743 162.989 123.173 162.459 123.173H160.302L161.818 124.689C162.193 125.064 162.193 125.672 161.818 126.047C161.442 126.423 160.834 126.423 160.459 126.047L158.965 124.554V126.667C158.965 127.197 158.535 127.627 158.004 127.627C157.474 127.627 157.044 127.197 157.044 126.667V124.522L155.518 126.047C155.143 126.423 154.535 126.423 154.159 126.047C153.784 125.672 153.784 125.064 154.159 124.689L155.707 123.141L153.518 123.141C152.988 123.141 152.558 122.711 152.558 122.18C152.558 121.65 152.988 121.22 153.518 121.22L155.675 121.22L154.159 119.704C153.784 119.329 153.784 118.72 154.159 118.345C154.535 117.97 155.143 117.97 155.518 118.345L157.012 119.839V117.726C157.012 117.195 157.442 116.765 157.973 116.765ZM173.235 116.765C173.765 116.765 174.196 117.195 174.196 117.726V119.87L175.721 118.345C176.096 117.97 176.704 117.97 177.08 118.345C177.455 118.72 177.455 119.329 177.08 119.704L175.532 121.251H177.721C178.251 121.251 178.682 121.682 178.682 122.212C178.682 122.743 178.251 123.173 177.721 123.173H175.564L177.08 124.689C177.455 125.064 177.455 125.672 177.08 126.047C176.704 126.423 176.096 126.423 175.721 126.047L174.227 124.554V126.667C174.227 127.197 173.797 127.627 173.266 127.627C172.736 127.627 172.306 127.197 172.306 126.667V124.522L170.78 126.047C170.405 126.423 169.797 126.423 169.421 126.047C169.046 125.672 169.046 125.064 169.421 124.689L170.969 123.141L168.78 123.141C168.25 123.141 167.82 122.711 167.82 122.18C167.82 121.65 168.25 121.22 168.78 121.22L170.937 121.22L169.421 119.704C169.046 119.329 169.046 118.72 169.421 118.345C169.797 117.97 170.405 117.97 170.78 118.345L172.274 119.839L172.274 117.726C172.274 117.195 172.704 116.765 173.235 116.765Z" fill="#FED9FF"/>
<defs>
<filter id="filter0_f_241_23681" x="0.492748" y="0.971752" width="299.015" height="299.015" filterUnits="userSpaceOnUse" color-interpolation-filters="sRGB">
<feFlood flood-opacity="0" result="BackgroundImageFix"/>
<feBlend mode="normal" in="SourceGraphic" in2="BackgroundImageFix" result="shape"/>
<feGaussianBlur stdDeviation="26.7536" result="effect1_foregroundBlur_241_23681"/>
</filter>
<radialGradient id="paint0_radial_241_23681" cx="0" cy="0" r="1" gradientUnits="userSpaceOnUse" gradientTransform="translate(140.4 159.494) rotate(78.0338) scale(101.364 96.1296)">
<stop stop-color="#D45CF2"/>
<stop offset="0.526042" stop-color="#A030B3"/>
<stop offset="1" stop-color="#A030B3" stop-opacity="0.32"/>
</radialGradient>
<linearGradient id="paint1_linear_241_23681" x1="144.176" y1="149.845" x2="163.244" y2="209.433" gradientUnits="userSpaceOnUse">
<stop stop-color="#FF4FAD"/>
<stop offset="1" stop-color="#5F1B80"/>
</linearGradient>
<linearGradient id="paint2_linear_241_23681" x1="113.408" y1="159.952" x2="122.096" y2="212.799" gradientUnits="userSpaceOnUse">
<stop stop-color="white"/>
<stop offset="0.274663" stop-color="#FDA4FF"/>
<stop offset="0.554549" stop-color="#FF67C2"/>
<stop offset="1" stop-color="#FFA6F1"/>
</linearGradient>
<linearGradient id="paint3_linear_241_23681" x1="141.377" y1="207.09" x2="118.319" y2="144.76" gradientUnits="userSpaceOnUse">
<stop stop-color="white"/>
<stop offset="0.15625" stop-color="#FDA4FF"/>
<stop offset="0.40625" stop-color="#FF67C2"/>
<stop offset="1" stop-color="#FFA6F1"/>
</linearGradient>
<linearGradient id="paint4_linear_241_23681" x1="148.308" y1="209.11" x2="150.271" y2="214.415" gradientUnits="userSpaceOnUse">
<stop stop-color="white"/>
<stop offset="0.15625" stop-color="#FDA4FF"/>
<stop offset="0.40625" stop-color="#FF67C2"/>
<stop offset="1" stop-color="#FFA6F1"/>
</linearGradient>
<linearGradient id="paint5_linear_241_23681" x1="159.022" y1="94.3078" x2="182.08" y2="156.638" gradientUnits="userSpaceOnUse">
<stop stop-color="white"/>
<stop offset="0.15625" stop-color="#FDA4FF"/>
<stop offset="0.40625" stop-color="#FF67C2"/>
<stop offset="1" stop-color="#FFA6F1"/>
</linearGradient>
<linearGradient id="paint6_linear_241_23681" x1="148.441" y1="87.8679" x2="150.404" y2="93.1726" gradientUnits="userSpaceOnUse">
<stop stop-color="white"/>
<stop offset="0.15625" stop-color="#FDA4FF"/>
<stop offset="0.40625" stop-color="#FF67C2"/>
<stop offset="1" stop-color="#FFA6F1"/>
</linearGradient>
<linearGradient id="paint7_linear_241_23681" x1="117.958" y1="99.1958" x2="150.135" y2="173.978" gradientUnits="userSpaceOnUse">
<stop stop-color="#FF4FAD"/>
<stop offset="1" stop-color="#5F1B80"/>
</linearGradient>
<linearGradient id="paint8_linear_241_23681" x1="113.408" y1="131.129" x2="122.096" y2="183.976" gradientUnits="userSpaceOnUse">
<stop stop-color="white"/>
<stop offset="0.15625" stop-color="#FDA4FF"/>
<stop offset="0.953937" stop-color="#FF67C2"/>
<stop offset="1" stop-color="#FFA6F1"/>
</linearGradient>
<linearGradient id="paint9_linear_241_23681" x1="138.369" y1="99.0164" x2="178.889" y2="141.919" gradientUnits="userSpaceOnUse">
<stop stop-color="#FF4FAD"/>
<stop offset="1" stop-color="#5F1B80"/>
</linearGradient>
<linearGradient id="paint10_linear_241_23681" x1="187.973" y1="140.013" x2="171.614" y2="82.1978" gradientUnits="userSpaceOnUse">
<stop stop-color="white"/>
<stop offset="0.15625" stop-color="#FDA4FF"/>
<stop offset="0.40625" stop-color="#FF67C2"/>
<stop offset="1" stop-color="#FFA6F1"/>
</linearGradient>
</defs>
</svg>
