<svg width="144" height="44" viewBox="0 0 144 44" fill="none" xmlns="http://www.w3.org/2000/svg">
<path d="M30.3423 22.9149C30.3565 21.8121 30.6494 20.7307 31.1939 19.7715C31.7383 18.8123 32.5165 18.0063 33.4561 17.4287C32.8592 16.5762 32.0718 15.8746 31.1563 15.3797C30.2408 14.8848 29.2226 14.6102 28.1824 14.5777C25.9636 14.3448 23.8125 15.9054 22.6818 15.9054C21.5293 15.9054 19.7884 14.6008 17.9138 14.6393C16.7012 14.6785 15.5195 15.0311 14.4837 15.6628C13.448 16.2945 12.5935 17.1837 12.0035 18.2438C9.44808 22.6682 11.3542 29.1705 13.8022 32.7469C15.0269 34.4981 16.4583 36.4543 18.3312 36.3849C20.164 36.3089 20.8485 35.2162 23.0608 35.2162C25.2526 35.2162 25.8948 36.3849 27.8057 36.3408C29.7724 36.3089 31.0115 34.5818 32.1932 32.814C33.0732 31.5662 33.7504 30.1871 34.1996 28.7277C33.057 28.2445 32.082 27.4356 31.396 26.4019C30.7101 25.3682 30.3436 24.1555 30.3423 22.9149Z" fill="white"/>
<path d="M26.7329 12.2256C27.8052 10.9383 28.3334 9.28376 28.2055 7.61328C26.5673 7.78535 25.054 8.56832 23.9672 9.80619C23.4358 10.4109 23.0289 11.1144 22.7696 11.8766C22.5103 12.6387 22.4037 13.4444 22.456 14.2477C23.2754 14.2562 24.086 14.0786 24.8269 13.7283C25.5677 13.378 26.2194 12.8642 26.7329 12.2256Z" fill="white"/>
<path d="M54.2453 29.0923H48.682L47.346 32.947H44.9896L50.2591 18.6855H52.7073L57.9767 32.947H55.5801L54.2453 29.0923ZM49.2582 27.3135H53.668L51.4941 21.0576H51.4333L49.2582 27.3135Z" fill="white"/>
<path d="M69.3568 27.7486C69.3568 30.9797 67.5869 33.0557 64.9161 33.0557C64.2395 33.0903 63.5666 32.938 62.9745 32.6162C62.3824 32.2945 61.8949 31.8164 61.568 31.2365H61.5175V36.3866H59.3333V22.5492H61.4475V24.2786H61.4877C61.8296 23.7015 62.3253 23.2259 62.9219 22.9022C63.5186 22.5785 64.1938 22.4189 64.8759 22.4404C67.5766 22.4404 69.3568 24.5264 69.3568 27.7486ZM67.1118 27.7486C67.1118 25.6435 65.9984 24.2595 64.2997 24.2595C62.6308 24.2595 61.5083 25.6726 61.5083 27.7486C61.5083 29.8436 62.6308 31.2467 64.2997 31.2467C65.9984 31.2467 67.1118 29.8728 67.1118 27.7486Z" fill="white"/>
<path d="M81.0687 27.7487C81.0687 30.9798 79.2989 33.0557 76.628 33.0557C75.9514 33.0903 75.2785 32.938 74.6864 32.6163C74.0943 32.2946 73.6069 31.8164 73.2799 31.2366H73.2294V36.3867H71.0452V22.5492H73.1594V24.2786H73.1995C73.5415 23.7016 74.0372 23.2259 74.6338 22.9022C75.2304 22.5785 75.9057 22.419 76.5878 22.4405C79.2885 22.4405 81.0687 24.5265 81.0687 27.7487ZM78.8237 27.7487C78.8237 25.6436 77.7103 24.2596 76.0116 24.2596C74.3428 24.2596 73.2202 25.6727 73.2202 27.7487C73.2202 29.8437 74.3428 31.2467 76.0116 31.2467C77.7103 31.2467 78.8237 29.8728 78.8237 27.7487H78.8237Z" fill="white"/>
<path d="M88.8094 28.9734C88.9712 30.3876 90.3773 31.3162 92.2986 31.3162C94.1397 31.3162 95.4642 30.3876 95.4642 29.1124C95.4642 28.0054 94.6653 27.3426 92.7738 26.8884L90.8823 26.4431C88.2022 25.8106 86.958 24.5859 86.958 22.5985C86.958 20.1379 89.1526 18.4478 92.2688 18.4478C95.3528 18.4478 97.4671 20.1379 97.5382 22.5985H95.3333C95.2013 21.1753 93.9973 20.3162 92.2378 20.3162C90.4782 20.3162 89.2742 21.1854 89.2742 22.4505C89.2742 23.4588 90.0432 24.052 91.9244 24.5062L93.5325 24.892C96.527 25.584 97.7712 26.7594 97.7712 28.8454C97.7712 31.5135 95.5962 33.1846 92.1368 33.1846C88.9 33.1846 86.7147 31.5528 86.5735 28.9733L88.8094 28.9734Z" fill="white"/>
<path d="M102.485 20.0886V22.5493H104.509V24.2394H102.485V29.9715C102.485 30.862 102.89 31.277 103.78 31.277C104.02 31.2729 104.26 31.2564 104.498 31.2276V32.9077C104.098 32.9807 103.692 33.0138 103.285 33.0064C101.131 33.0064 100.291 32.2157 100.291 30.1992V24.2394H98.7434V22.5493H100.291V20.0886H102.485Z" fill="white"/>
<path d="M105.681 27.7487C105.681 24.4772 107.653 22.4214 110.727 22.4214C113.813 22.4214 115.775 24.4771 115.775 27.7487C115.775 31.0291 113.823 33.0759 110.727 33.0759C107.633 33.0759 105.681 31.0291 105.681 27.7487ZM113.55 27.7487C113.55 25.5045 112.497 24.1799 110.727 24.1799C108.958 24.1799 107.906 25.5146 107.906 27.7487C107.906 30.0018 108.958 31.3162 110.727 31.3162C112.497 31.3162 113.55 30.0018 113.55 27.7487H113.55Z" fill="white"/>
<path d="M117.576 22.5493H119.659V24.319H119.71C119.851 23.7663 120.182 23.2778 120.648 22.9357C121.115 22.5936 121.687 22.4187 122.269 22.4405C122.521 22.4396 122.772 22.4663 123.018 22.5201V24.5164C122.7 24.4215 122.369 24.378 122.036 24.3875C121.719 24.3749 121.403 24.4295 121.109 24.5477C120.815 24.6659 120.551 24.8447 120.335 25.072C120.119 25.2992 119.956 25.5695 119.856 25.8643C119.757 26.1591 119.724 26.4713 119.76 26.7797V32.947H117.576L117.576 22.5493Z" fill="white"/>
<path d="M133.088 29.893C132.795 31.7805 130.913 33.0759 128.506 33.0759C125.411 33.0759 123.49 31.0493 123.49 27.798C123.49 24.5366 125.421 22.4214 128.415 22.4214C131.359 22.4214 133.21 24.3975 133.21 27.5501V28.2814H125.694V28.4104C125.66 28.793 125.709 29.1785 125.838 29.5412C125.968 29.904 126.175 30.2356 126.445 30.5142C126.716 30.7927 127.044 31.0118 127.409 31.1569C127.773 31.3019 128.164 31.3696 128.557 31.3555C129.073 31.4027 129.591 31.2859 130.034 31.0224C130.477 30.7589 130.82 30.3628 131.014 29.893L133.088 29.893ZM125.705 26.7897H131.025C131.044 26.4457 130.991 26.1014 130.868 25.7784C130.745 25.4554 130.555 25.1608 130.31 24.913C130.065 24.6652 129.77 24.4696 129.444 24.3384C129.118 24.2073 128.767 24.1434 128.415 24.1508C128.059 24.1487 127.706 24.2155 127.377 24.3473C127.048 24.479 126.749 24.6732 126.497 24.9185C126.245 25.1639 126.045 25.4556 125.909 25.7767C125.773 26.0979 125.704 26.4422 125.705 26.7898V26.7897Z" fill="white"/>
<path d="M48.9844 7.95095C49.4424 7.91884 49.9019 7.98644 50.3298 8.14887C50.7578 8.3113 51.1435 8.56451 51.4592 8.89023C51.7748 9.21596 52.0126 9.60609 52.1553 10.0325C52.298 10.4589 52.342 10.9109 52.2843 11.3559C52.2843 13.5451 51.0734 14.8035 48.9844 14.8035H46.4513V7.95095H48.9844ZM47.5405 13.8344H48.8628C49.19 13.8536 49.5174 13.8011 49.8213 13.681C50.1252 13.5608 50.3978 13.376 50.6193 13.1399C50.8409 12.9038 51.0058 12.6225 51.102 12.3163C51.1982 12.0101 51.2233 11.6868 51.1755 11.3699C51.2198 11.0542 51.1922 10.7329 51.0945 10.429C50.9968 10.125 50.8315 9.84596 50.6105 9.61176C50.3894 9.37756 50.1181 9.19403 49.816 9.07432C49.5138 8.95461 49.1883 8.90168 48.8628 8.91933H47.5405V13.8344Z" fill="white"/>
<path d="M53.5147 12.2155C53.4815 11.8756 53.5213 11.5328 53.6315 11.2088C53.7418 10.8849 53.9202 10.587 54.1552 10.3344C54.3902 10.0818 54.6766 9.8799 54.9961 9.74177C55.3157 9.60364 55.6612 9.53229 56.0106 9.53229C56.36 9.53229 56.7055 9.60364 57.025 9.74177C57.3445 9.8799 57.631 10.0818 57.866 10.3344C58.101 10.587 58.2793 10.8849 58.3896 11.2088C58.4999 11.5328 58.5397 11.8756 58.5064 12.2155C58.5403 12.5557 58.501 12.8991 58.391 13.2235C58.281 13.548 58.1027 13.8464 57.8677 14.0995C57.6326 14.3526 57.346 14.5549 57.0261 14.6933C56.7063 14.8318 56.3604 14.9033 56.0106 14.9033C55.6608 14.9033 55.3148 14.8318 54.995 14.6933C54.6752 14.5549 54.3885 14.3526 54.1535 14.0995C53.9184 13.8464 53.7401 13.548 53.6301 13.2235C53.5201 12.8991 53.4808 12.5557 53.5147 12.2155ZM57.4321 12.2155C57.4321 11.0945 56.9167 10.439 56.0123 10.439C55.1044 10.439 54.5937 11.0945 54.5937 12.2155C54.5937 13.3455 55.1044 13.9959 56.0123 13.9959C56.9168 13.9959 57.4321 13.3409 57.4321 12.2155H57.4321Z" fill="white"/>
<path d="M65.1417 14.8034H64.0582L62.9644 10.9947H62.8817L61.7925 14.8034H60.7193L59.2605 9.63202H60.3199L61.268 13.5781H61.346L62.4341 9.63202H63.4361L64.5242 13.5781H64.6068L65.5503 9.63202H66.5948L65.1417 14.8034Z" fill="white"/>
<path d="M67.8218 9.63201H68.8272V10.4535H68.9053C69.0377 10.1585 69.261 9.91113 69.5441 9.74598C69.8272 9.58082 70.156 9.50609 70.4846 9.53219C70.7421 9.51327 71.0007 9.55121 71.2412 9.6432C71.4816 9.73518 71.6978 9.87886 71.8738 10.0636C72.0497 10.2483 72.1808 10.4693 72.2575 10.7103C72.3341 10.9513 72.3543 11.206 72.3165 11.4556V14.8033H71.272V11.7119C71.272 10.8808 70.9024 10.4676 70.13 10.4676C69.9551 10.4596 69.7806 10.4887 69.6183 10.5528C69.4561 10.6169 69.3099 10.7146 69.1899 10.839C69.0699 10.9635 68.9788 11.1119 68.9229 11.2739C68.8671 11.436 68.8477 11.608 68.8662 11.7781V14.8034H67.8218L67.8218 9.63201Z" fill="white"/>
<path d="M73.9807 7.61328H75.0252V14.8034H73.9807V7.61328Z" fill="white"/>
<path d="M76.4771 12.2155C76.4439 11.8757 76.4837 11.5328 76.594 11.2088C76.7043 10.8848 76.8827 10.587 77.1177 10.3343C77.3527 10.0817 77.6392 9.87984 77.9587 9.74171C78.2783 9.60358 78.6238 9.53223 78.9732 9.53223C79.3226 9.53223 79.6682 9.60358 79.9877 9.74171C80.3073 9.87984 80.5937 10.0817 80.8288 10.3343C81.0638 10.587 81.2422 10.8848 81.3525 11.2088C81.4628 11.5328 81.5026 11.8757 81.4694 12.2155C81.5032 12.5557 81.4639 12.8991 81.3538 13.2236C81.2438 13.548 81.0655 13.8464 80.8304 14.0995C80.5954 14.3527 80.3087 14.5549 79.9888 14.6934C79.669 14.8318 79.3231 14.9033 78.9732 14.9033C78.6234 14.9033 78.2775 14.8318 77.9576 14.6934C77.6378 14.5549 77.3511 14.3527 77.116 14.0995C76.881 13.8464 76.7027 13.548 76.5926 13.2236C76.4826 12.8991 76.4432 12.5557 76.4771 12.2155ZM80.3945 12.2155C80.3945 11.0946 79.8791 10.439 78.9747 10.439C78.0668 10.439 77.5561 11.0946 77.5561 12.2155C77.5561 13.3455 78.0668 13.996 78.9747 13.996C79.8791 13.996 80.3945 13.341 80.3945 12.2155H80.3945Z" fill="white"/>
<path d="M82.569 13.3409C82.569 12.4101 83.2783 11.8734 84.5374 11.7971L85.971 11.7164V11.27C85.971 10.7238 85.6014 10.4154 84.8875 10.4154C84.3044 10.4154 83.9004 10.6246 83.7845 10.9902H82.7733C82.88 10.102 83.7351 9.53223 84.9357 9.53223C86.2625 9.53223 87.0109 10.1777 87.0109 11.27V14.8034H86.0054V14.0767H85.9228C85.755 14.3374 85.5195 14.5499 85.2402 14.6925C84.9609 14.8352 84.6479 14.9028 84.3331 14.8886C84.1109 14.9112 83.8864 14.888 83.6739 14.8206C83.4615 14.7532 83.2658 14.643 83.0996 14.4972C82.9334 14.3514 82.8003 14.1732 82.7089 13.974C82.6175 13.7749 82.5698 13.5592 82.569 13.3409ZM85.971 12.899V12.4667L84.6786 12.5475C83.9497 12.5951 83.6192 12.8374 83.6192 13.2933C83.6192 13.7587 84.0324 14.0295 84.6006 14.0295C84.767 14.046 84.9352 14.0296 85.0951 13.9812C85.2549 13.9329 85.4032 13.8536 85.531 13.7482C85.6589 13.6427 85.7637 13.5132 85.8393 13.3673C85.9149 13.2214 85.9597 13.0622 85.971 12.899Z" fill="white"/>
<path d="M88.3837 12.2155C88.3837 10.5814 89.2434 9.54625 90.5805 9.54625C90.9113 9.53136 91.2395 9.60877 91.5269 9.76943C91.8143 9.93009 92.049 10.1674 92.2035 10.4535H92.2815V7.61328H93.326V14.8034H92.3251V13.9864H92.2425C92.0761 14.2706 91.8332 14.5049 91.5403 14.664C91.2473 14.823 90.9154 14.9007 90.5805 14.8886C89.2342 14.8887 88.3837 13.8535 88.3837 12.2155ZM89.4626 12.2155C89.4626 13.3124 89.9917 13.9724 90.8767 13.9724C91.757 13.9724 92.3011 13.3028 92.3011 12.22C92.3011 11.1422 91.7513 10.4631 90.8767 10.4631C89.9974 10.4631 89.4626 11.1276 89.4626 12.2155H89.4626Z" fill="white"/>
<path d="M97.6473 12.2155C97.614 11.8756 97.6538 11.5328 97.7641 11.2088C97.8744 10.8849 98.0528 10.587 98.2878 10.3344C98.5228 10.0818 98.8092 9.8799 99.1287 9.74177C99.4482 9.60364 99.7938 9.53229 100.143 9.53229C100.493 9.53229 100.838 9.60364 101.158 9.74177C101.477 9.8799 101.764 10.0818 101.999 10.3344C102.234 10.587 102.412 10.8849 102.522 11.2088C102.632 11.5328 102.672 11.8756 102.639 12.2155C102.673 12.5557 102.634 12.8991 102.524 13.2235C102.414 13.548 102.235 13.8464 102 14.0995C101.765 14.3526 101.479 14.5549 101.159 14.6933C100.839 14.8318 100.493 14.9033 100.143 14.9033C99.7933 14.9033 99.4474 14.8318 99.1276 14.6933C98.8077 14.5549 98.5211 14.3526 98.286 14.0995C98.051 13.8464 97.8727 13.548 97.7627 13.2235C97.6527 12.8991 97.6134 12.5557 97.6473 12.2155ZM101.565 12.2155C101.565 11.0945 101.049 10.439 100.145 10.439C99.237 10.439 98.7263 11.0945 98.7263 12.2155C98.7263 13.3455 99.237 13.9959 100.145 13.9959C101.049 13.9959 101.565 13.3409 101.565 12.2155Z" fill="white"/>
<path d="M104.04 9.63201H105.046V10.4535H105.124C105.256 10.1585 105.48 9.91113 105.763 9.74598C106.046 9.58082 106.375 9.50609 106.703 9.53219C106.961 9.51327 107.219 9.55121 107.46 9.6432C107.7 9.73518 107.916 9.87886 108.092 10.0636C108.268 10.2483 108.399 10.4693 108.476 10.7103C108.553 10.9513 108.573 11.206 108.535 11.4556V14.8033H107.491V11.7119C107.491 10.8808 107.121 10.4676 106.349 10.4676C106.174 10.4596 105.999 10.4887 105.837 10.5528C105.675 10.6169 105.529 10.7146 105.409 10.839C105.288 10.9635 105.197 11.1119 105.142 11.2739C105.086 11.436 105.066 11.608 105.085 11.7781V14.8034H104.04V9.63201Z" fill="white"/>
<path d="M114.437 8.34454V9.65561H115.584V10.5153H114.437V13.1744C114.437 13.7161 114.665 13.9533 115.185 13.9533C115.319 13.9529 115.452 13.945 115.584 13.9298V14.7799C115.396 14.8127 115.206 14.8301 115.016 14.832C113.854 14.832 113.391 14.4328 113.391 13.4357V10.5152H112.551V9.65556H113.391V8.34454H114.437Z" fill="white"/>
<path d="M117.01 7.61328H118.046V10.4631H118.128C118.267 10.1653 118.496 9.91653 118.785 9.75076C119.074 9.58498 119.408 9.51024 119.742 9.53671C119.998 9.52309 120.254 9.56488 120.492 9.6591C120.73 9.75332 120.943 9.89765 121.117 10.0818C121.291 10.2659 121.422 10.4853 121.499 10.7244C121.576 10.9634 121.599 11.2162 121.565 11.4646V14.8034H120.519V11.7164C120.519 10.8904 120.125 10.4721 119.387 10.4721C119.208 10.4577 119.027 10.4818 118.858 10.5427C118.689 10.6036 118.536 10.6999 118.409 10.8248C118.282 10.9497 118.185 11.1001 118.123 11.2657C118.062 11.4312 118.039 11.6078 118.055 11.7831V14.8034H117.01L117.01 7.61328Z" fill="white"/>
<path d="M127.655 13.4071C127.513 13.8798 127.205 14.2886 126.786 14.5621C126.367 14.8356 125.863 14.9564 125.361 14.9032C125.013 14.9122 124.666 14.847 124.346 14.712C124.026 14.577 123.739 14.3756 123.507 14.1216C123.274 13.8676 123.101 13.5673 122.999 13.2413C122.897 12.9154 122.869 12.5716 122.917 12.234C122.87 11.8954 122.899 11.5509 123.001 11.224C123.102 10.897 123.275 10.5953 123.506 10.3391C123.737 10.0829 124.022 9.87827 124.342 9.73907C124.661 9.59987 125.007 9.52934 125.357 9.53225C126.829 9.53225 127.718 10.5153 127.718 12.1392V12.4953H123.981V12.5525C123.964 12.7423 123.989 12.9333 124.052 13.1134C124.116 13.2934 124.217 13.4584 124.35 13.5979C124.483 13.7374 124.644 13.8482 124.823 13.9233C125.002 13.9984 125.195 14.0362 125.39 14.034C125.64 14.0633 125.893 14.0194 126.117 13.9077C126.342 13.7961 126.527 13.6218 126.649 13.4071L127.655 13.4071ZM123.981 11.7405H126.654C126.667 11.567 126.643 11.3926 126.583 11.2287C126.523 11.0648 126.429 10.915 126.306 10.7888C126.183 10.6627 126.035 10.563 125.871 10.4962C125.706 10.4293 125.529 10.3969 125.351 10.4009C125.17 10.3987 124.991 10.4318 124.824 10.4983C124.657 10.5649 124.505 10.6635 124.377 10.7884C124.249 10.9132 124.148 11.0618 124.08 11.2253C124.012 11.3888 123.978 11.564 123.981 11.7405H123.981Z" fill="white"/>
</svg>
