<svg width="16" height="17" viewBox="0 0 16 17" fill="none" xmlns="http://www.w3.org/2000/svg">
<path fill-rule="evenodd" clip-rule="evenodd" d="M1.99982 4.45852C1.99982 3.72214 2.59677 3.12518 3.33315 3.12518H11.6665C12.4029 3.12518 12.9998 3.72214 12.9998 4.45852V6.45852L13.9998 6.45852C14.7362 6.45852 15.3332 7.05547 15.3332 7.79185V13.1252C15.3332 13.8616 14.7362 14.4585 13.9998 14.4585H11.3332C10.5968 14.4585 9.99984 13.8616 9.99984 13.1252H1.99982C0.901089 13.1252 0.273914 11.8708 0.93315 10.9918L1.99982 9.56963V4.45852ZM9.99984 11.7918V10.4585H2.99982L1.99982 11.7919L9.99984 11.7918ZM9.99984 9.12518V7.79185C9.99984 7.05547 10.5968 6.45852 11.3332 6.45852L11.6665 6.45852V5.12518C11.6665 4.75699 11.368 4.45852 10.9998 4.45852H3.99982C3.63163 4.45852 3.33315 4.75699 3.33315 5.12518V9.12518H9.99984ZM11.3332 7.79185H13.9998V13.1252H11.3332V7.79185Z" fill="#ED3984"/>
</svg>
