<svg width="16" height="17" viewBox="0 0 16 17" fill="none" xmlns="http://www.w3.org/2000/svg">
<path fill-rule="evenodd" clip-rule="evenodd" d="M2.07095 4.16113C2.1812 3.94311 2.40792 3.79183 2.66656 3.79183H13.3332C13.5919 3.79183 13.8186 3.94311 13.9288 4.16113L7.99989 8.31139L2.07095 4.16113ZM0.666594 4.44697C0.666486 4.45353 0.666475 4.4601 0.666561 4.46667V12.4585C0.666561 13.56 1.56504 14.4585 2.66656 14.4585H13.3332C14.4348 14.4585 15.3332 13.56 15.3332 12.4585V4.46662M13.9999 5.73893V12.4585C13.9999 12.8236 13.6984 13.1252 13.3332 13.1252H2.66656C2.30142 13.1252 1.99989 12.8236 1.99989 12.4585V5.73893L7.61759 9.67132C7.84713 9.832 8.15266 9.832 8.3822 9.67132L13.9999 5.73893ZM15.3332 4.44698C15.327 3.35072 14.4309 2.4585 13.3332 2.4585H2.66656C1.56888 2.4585 0.672838 3.35071 0.666594 4.44697" fill="#ED3984"/>
</svg>
