<svg width="162" height="48" viewBox="0 0 162 48" fill="none" xmlns="http://www.w3.org/2000/svg">
<path d="M25.0091 23.2924L11.9503 37.1521C11.9515 37.1545 11.9515 37.1582 11.9528 37.1606C12.3538 38.6656 13.7275 39.7731 15.3588 39.7731C16.0113 39.7731 16.6234 39.5965 17.1483 39.2874L17.19 39.2629L31.8886 30.7815L25.0091 23.2924Z" fill="#EA4335"/>
<path d="M38.2198 20.9324L38.2075 20.9238L31.8615 17.2455L24.7122 23.6074L31.8873 30.7801L38.1989 27.1386C39.3053 26.54 40.0571 25.3736 40.0571 24.0293C40.0571 22.6924 39.3163 21.5321 38.2198 20.9324Z" fill="#FBBC04"/>
<path d="M11.95 10.847C11.8715 11.1364 11.8298 11.4406 11.8298 11.7546V36.2457C11.8298 36.5597 11.8715 36.8639 11.9513 37.1521L25.4577 23.6469L11.95 10.847Z" fill="#4285F4"/>
<path d="M25.1055 23.9999L31.8636 17.2431L17.1822 8.73102C16.6486 8.41089 16.0255 8.22692 15.3595 8.22692C13.7283 8.22692 12.3521 9.33692 11.9511 10.8431C11.9511 10.8443 11.9498 10.8455 11.9498 10.8468L25.1055 23.9999Z" fill="#34A853"/>
<path d="M59.2793 12.1431C59.2793 13.1147 58.9918 13.8879 58.4156 14.4653C57.7606 15.1516 56.9085 15.4948 55.8605 15.4948C54.8553 15.4948 54.002 15.147 53.3007 14.4502C52.5969 13.7546 52.2468 12.8909 52.2468 11.8614C52.2468 10.8308 52.5969 9.96823 53.3007 9.27148C54.002 8.57588 54.8553 8.22692 55.8605 8.22692C56.3578 8.22692 56.8354 8.32431 57.2876 8.51907C57.7409 8.71384 58.1038 8.97237 58.3762 9.29582L57.7641 9.90795C57.3038 9.35843 56.6697 9.08251 55.8605 9.08251C55.1278 9.08251 54.4948 9.33988 53.9603 9.85462C53.4259 10.3705 53.1592 11.0383 53.1592 11.8614C53.1592 12.6834 53.4259 13.3523 53.9603 13.8671C54.4948 14.383 55.1278 14.6392 55.8605 14.6392C56.6372 14.6392 57.2841 14.3806 57.8035 13.8624C58.1397 13.5251 58.3333 13.0567 58.3855 12.4538H55.8605V11.618H59.2306C59.2631 11.8 59.2793 11.975 59.2793 12.1431Z" fill="white"/>
<path d="M59.2793 12.1431C59.2793 13.1147 58.9918 13.8879 58.4156 14.4653C57.7606 15.1516 56.9085 15.4948 55.8605 15.4948C54.8553 15.4948 54.002 15.147 53.3007 14.4502C52.5969 13.7546 52.2468 12.8909 52.2468 11.8614C52.2468 10.8308 52.5969 9.96823 53.3007 9.27148C54.002 8.57588 54.8553 8.22692 55.8605 8.22692C56.3578 8.22692 56.8354 8.32431 57.2876 8.51907C57.7409 8.71384 58.1038 8.97237 58.3762 9.29582L57.7641 9.90795C57.3038 9.35843 56.6697 9.08251 55.8605 9.08251C55.1278 9.08251 54.4948 9.33988 53.9603 9.85462C53.4259 10.3705 53.1592 11.0383 53.1592 11.8614C53.1592 12.6834 53.4259 13.3523 53.9603 13.8671C54.4948 14.383 55.1278 14.6392 55.8605 14.6392C56.6372 14.6392 57.2841 14.3806 57.8035 13.8624C58.1397 13.5251 58.3333 13.0567 58.3855 12.4538H55.8605V11.618H59.2306C59.2631 11.8 59.2793 11.975 59.2793 12.1431Z" fill="white"/>
<path d="M64.623 9.23793H61.4557V11.443H64.3123V12.2789H61.4557V14.4839H64.623V15.3395H60.5619V8.38351H64.623V9.23793Z" fill="white"/>
<path d="M64.623 9.23793H61.4557V11.443H64.3123V12.2789H61.4557V14.4839H64.623V15.3395H60.5619V8.38351H64.623V9.23793Z" fill="white"/>
<path d="M68.3921 15.3392H67.4982V9.23763H65.5552V8.3832H70.3351V9.23763H68.3921V15.3392Z" fill="white"/>
<path d="M68.3921 15.3392H67.4982V9.23763H65.5552V8.3832H70.3351V9.23763H68.3921V15.3392Z" fill="white"/>
<path d="M73.7936 8.3832H74.6874V15.3392H73.7936V8.3832Z" fill="white"/>
<path d="M78.6516 15.3392H77.7577V9.23763H75.8147V8.3832H80.5946V9.23763H78.6516V15.3392Z" fill="white"/>
<path d="M78.6516 15.3392H77.7577V9.23763H75.8147V8.3832H80.5946V9.23763H78.6516V15.3392Z" fill="white"/>
<path d="M85.2028 13.8578C85.7176 14.3795 86.3471 14.6392 87.0925 14.6392C87.838 14.6392 88.4675 14.3795 88.9822 13.8578C89.497 13.3361 89.7555 12.6706 89.7555 11.8614C89.7555 11.0522 89.497 10.3856 88.9822 9.86505C88.4675 9.34336 87.838 9.08251 87.0925 9.08251C86.3471 9.08251 85.7176 9.34336 85.2028 9.86505C84.6892 10.3856 84.4307 11.0522 84.4307 11.8614C84.4307 12.6706 84.6892 13.3361 85.2028 13.8578ZM89.643 14.4398C88.959 15.1435 88.1092 15.4948 87.0925 15.4948C86.0758 15.4948 85.226 15.1435 84.5432 14.4398C83.8592 13.7372 83.5183 12.8781 83.5183 11.8614C83.5183 10.8447 83.8592 9.98446 84.5432 9.28191C85.226 8.57936 86.0758 8.22692 87.0925 8.22692C88.1035 8.22692 88.9509 8.58052 89.6384 9.28655C90.3247 9.99258 90.6679 10.8505 90.6679 11.8614C90.6679 12.8781 90.3259 13.7372 89.643 14.4398Z" fill="white"/>
<path d="M85.2028 13.8578C85.7176 14.3795 86.3471 14.6392 87.0925 14.6392C87.838 14.6392 88.4675 14.3795 88.9822 13.8578C89.497 13.3361 89.7555 12.6706 89.7555 11.8614C89.7555 11.0522 89.497 10.3856 88.9822 9.86505C88.4675 9.34336 87.838 9.08251 87.0925 9.08251C86.3471 9.08251 85.7176 9.34336 85.2028 9.86505C84.6892 10.3856 84.4307 11.0522 84.4307 11.8614C84.4307 12.6706 84.6892 13.3361 85.2028 13.8578ZM89.643 14.4398C88.959 15.1435 88.1092 15.4948 87.0925 15.4948C86.0758 15.4948 85.226 15.1435 84.5432 14.4398C83.8592 13.7372 83.5183 12.8781 83.5183 11.8614C83.5183 10.8447 83.8592 9.98446 84.5432 9.28191C85.226 8.57936 86.0758 8.22692 87.0925 8.22692C88.1035 8.22692 88.9509 8.58052 89.6384 9.28655C90.3247 9.99258 90.6679 10.8505 90.6679 11.8614C90.6679 12.8781 90.3259 13.7372 89.643 14.4398Z" fill="white"/>
<path d="M91.9221 15.3392V8.3832H93.0096L96.3902 13.7938H96.4296L96.3902 12.4536V8.3832H97.2852V15.3392H96.3519L92.8148 9.66542H92.7765L92.8148 11.0068V15.3392H91.9221Z" fill="white"/>
<path d="M91.9221 15.3392V8.3832H93.0096L96.3902 13.7938H96.4296L96.3902 12.4536V8.3832H97.2852V15.3392H96.3519L92.8148 9.66542H92.7765L92.8148 11.0068V15.3392H91.9221Z" fill="white"/>
<path d="M128.28 35.0477H130.443V20.555H128.28V35.0477ZM147.764 25.7754L145.285 32.059H145.21L142.637 25.7754H140.306L144.166 34.5573L141.967 39.4427H144.222L150.17 25.7754H147.764ZM135.496 33.4015C134.787 33.4015 133.799 33.0479 133.799 32.1703C133.799 31.0527 135.029 30.6237 136.092 30.6237C137.043 30.6237 137.492 30.8289 138.069 31.1083C137.901 32.4508 136.745 33.4015 135.496 33.4015ZM135.757 25.4589C134.191 25.4589 132.568 26.1487 131.898 27.6779L133.818 28.479C134.228 27.6779 134.992 27.4159 135.794 27.4159C136.913 27.4159 138.05 28.0871 138.069 29.2812V29.4296C137.677 29.2059 136.839 28.8708 135.813 28.8708C133.744 28.8708 131.636 30.0081 131.636 32.1332C131.636 34.0727 133.333 35.3225 135.234 35.3225C136.689 35.3225 137.492 34.6698 137.995 33.9046H138.069V35.0234H140.157V29.4667C140.157 26.8942 138.237 25.4589 135.757 25.4589ZM122.388 27.5399H119.311V22.5722H122.388C124.005 22.5722 124.923 23.9112 124.923 25.0555C124.923 26.1789 124.005 27.5399 122.388 27.5399ZM122.332 20.555H117.149V35.0477H119.311V29.5571H122.332C124.73 29.5571 127.087 27.8205 127.087 25.0555C127.087 22.2905 124.73 20.555 122.332 20.555ZM94.0667 33.4038C92.5723 33.4038 91.3214 32.1529 91.3214 30.4347C91.3214 28.6981 92.5723 27.4274 94.0667 27.4274C95.5425 27.4274 96.6995 28.6981 96.6995 30.4347C96.6995 32.1529 95.5425 33.4038 94.0667 33.4038ZM96.5511 26.5869H96.4758C95.99 26.0084 95.0567 25.4856 93.88 25.4856C91.4141 25.4856 89.1546 27.6512 89.1546 30.4347C89.1546 33.1986 91.4141 35.3468 93.88 35.3468C95.0567 35.3468 95.99 34.824 96.4758 34.2257H96.5511V34.9364C96.5511 36.8226 95.5425 37.8313 93.9171 37.8313C92.5908 37.8313 91.7689 36.8783 91.4327 36.0749L89.5465 36.8597C90.0879 38.1675 91.5266 39.7731 93.9171 39.7731C96.4572 39.7731 98.6054 38.2788 98.6054 34.6373V25.7835H96.5511V26.5869ZM100.1 35.0477H102.267V20.5538H100.1V35.0477ZM105.459 30.2666C105.404 28.3619 106.935 27.3904 108.037 27.3904C108.897 27.3904 109.625 27.8193 109.867 28.4361L105.459 30.2666ZM112.183 28.6227C111.773 27.5214 110.521 25.4856 107.962 25.4856C105.422 25.4856 103.312 27.4831 103.312 30.4162C103.312 33.18 105.404 35.3468 108.205 35.3468C110.465 35.3468 111.773 33.9649 112.314 33.1615L110.633 32.0404C110.074 32.8624 109.307 33.4038 108.205 33.4038C107.103 33.4038 106.318 32.8995 105.814 31.9106L112.407 29.1827L112.183 28.6227ZM59.6567 26.9985V29.0899H64.6615C64.5119 30.2666 64.1201 31.1257 63.523 31.7228C62.7938 32.452 61.6542 33.2554 59.6567 33.2554C56.574 33.2554 54.1649 30.771 54.1649 27.6895C54.1649 24.6068 56.574 22.1235 59.6567 22.1235C61.3191 22.1235 62.533 22.7774 63.4291 23.6179L64.9049 22.1421C63.6529 20.9468 61.9915 20.0309 59.6567 20.0309C55.4355 20.0309 51.8868 23.4683 51.8868 27.6895C51.8868 31.9106 55.4355 35.3468 59.6567 35.3468C61.9347 35.3468 63.6529 34.5991 64.9977 33.1986C66.3808 31.8167 66.8097 29.8748 66.8097 28.3051C66.8097 27.8193 66.7726 27.3718 66.6973 26.9985H59.6567ZM72.5008 33.4038C71.0065 33.4038 69.7173 32.1714 69.7173 30.4162C69.7173 28.6413 71.0065 27.4274 72.5008 27.4274C73.9941 27.4274 75.2832 28.6413 75.2832 30.4162C75.2832 32.1714 73.9941 33.4038 72.5008 33.4038ZM72.5008 25.4856C69.773 25.4856 67.5505 27.5585 67.5505 30.4162C67.5505 33.2554 69.773 35.3468 72.5008 35.3468C75.2276 35.3468 77.45 33.2554 77.45 30.4162C77.45 27.5585 75.2276 25.4856 72.5008 25.4856ZM83.2977 33.4038C81.8033 33.4038 80.5141 32.1714 80.5141 30.4162C80.5141 28.6413 81.8033 27.4274 83.2977 27.4274C84.792 27.4274 86.0801 28.6413 86.0801 30.4162C86.0801 32.1714 84.792 33.4038 83.2977 33.4038ZM83.2977 25.4856C80.5709 25.4856 78.3485 27.5585 78.3485 30.4162C78.3485 33.2554 80.5709 35.3468 83.2977 35.3468C86.0244 35.3468 88.2468 33.2554 88.2468 30.4162C88.2468 27.5585 86.0244 25.4856 83.2977 25.4856Z" fill="white"/>
</svg>
