<svg width="16" height="17" viewBox="0 0 16 17" fill="none" xmlns="http://www.w3.org/2000/svg">
<path fill-rule="evenodd" clip-rule="evenodd" d="M2.00016 5.12518C2.00016 4.02061 2.89559 3.12518 4.00016 3.12518H12.0002C13.1047 3.12518 14.0002 4.02061 14.0002 5.12518V11.1252H14.0001L14.702 12.5289C15.1452 13.4154 14.5006 14.4585 13.5094 14.4585H2.49082C1.49964 14.4585 0.854978 13.4154 1.29825 12.5289L2.0001 11.1252H2.00016V5.12518ZM3.3335 5.12518C3.3335 4.75699 3.63197 4.45852 4.00016 4.45852H12.0002C12.3684 4.45852 12.6668 4.75699 12.6668 5.12518V10.4585H3.3335V5.12518ZM2.33344 13.1252L3.0001 11.7919H13.0001L13.6668 13.1252H2.33344Z" fill="white" fill-opacity="0.32"/>
</svg>
