<svg width="16" height="16" viewBox="0 0 16 16" fill="none" xmlns="http://www.w3.org/2000/svg">
<path fill-rule="evenodd" clip-rule="evenodd" d="M4.00033 2.66669C4.00033 2.2985 4.2988 2.00002 4.66699 2.00002H11.3337C11.7018 2.00002 12.0003 2.2985 12.0003 2.66669V13.3334C12.0003 13.7015 11.7018 14 11.3337 14H4.66699C4.2988 14 4.00033 13.7015 4.00033 13.3334V2.66669ZM4.66699 0.666687C3.56242 0.666687 2.66699 1.56212 2.66699 2.66669V13.3334C2.66699 14.4379 3.56242 15.3334 4.66699 15.3334H11.3337C12.4382 15.3334 13.3337 14.4379 13.3337 13.3334V2.66669C13.3337 1.56212 12.4382 0.666687 11.3337 0.666687H4.66699ZM8.00033 11.3334C7.63214 11.3334 7.33366 11.6318 7.33366 12C7.33366 12.3682 7.63214 12.6667 8.00033 12.6667H8.00699C8.37518 12.6667 8.67366 12.3682 8.67366 12C8.67366 11.6318 8.37518 11.3334 8.00699 11.3334H8.00033Z" fill="white" fill-opacity="0.32"/>
</svg>
