<svg width="24" height="24" viewBox="0 0 24 24" fill="none" xmlns="http://www.w3.org/2000/svg">
<path fill-rule="evenodd" clip-rule="evenodd" d="M3 5C3 4.44772 3.44772 4 4 4H20C20.5523 4 21 4.44772 21 5V15C21 15.5523 20.5523 16 20 16H4C3.44772 16 3 15.5523 3 15V5ZM4 2C2.34315 2 1 3.34315 1 5V15C1 16.6569 2.34315 18 4 18H20C21.6569 18 23 16.6569 23 15V5C23 3.34315 21.6569 2 20 2H4ZM7 20C6.44772 20 6 20.4477 6 21C6 21.5523 6.44772 22 7 22H17C17.5523 22 18 21.5523 18 21C18 20.4477 17.5523 20 17 20H7Z" fill="white" fill-opacity="0.32"/>
</svg>
