<svg width="32" height="32" viewBox="0 0 32 32" fill="none" xmlns="http://www.w3.org/2000/svg">
<path d="M6.76562 3.8243C9.75529 2.71555 13.2953 3.45689 16.0002 6.29516C18.705 3.45689 22.245 2.71555 25.2347 3.82429C28.3853 4.99272 30.6668 8.12065 30.6668 12.3342C30.6668 19.4469 25.3943 25.3837 19.0187 29.2002C17.1596 30.3131 14.8408 30.3131 12.9816 29.2002C6.60606 25.3837 1.3335 19.4469 1.3335 12.3342C1.3335 8.12065 3.615 4.99272 6.76562 3.8243Z" fill="url(#paint0_linear_1384_57788)"/>
<path fill-rule="evenodd" clip-rule="evenodd" d="M16.0002 6.29516C13.2953 3.45689 9.75529 2.71555 6.76562 3.8243C3.615 4.99272 1.3335 8.12065 1.3335 12.3342C1.3335 19.4469 6.60606 25.3837 12.9816 29.2002C14.8408 30.3131 17.1596 30.3131 19.0187 29.2002C25.3943 25.3837 30.6668 19.4469 30.6668 12.3342C30.6668 8.12065 28.3853 4.99272 25.2347 3.82429C22.245 2.71555 18.705 3.45689 16.0002 6.29516ZM7.69286 6.32456C5.67559 7.07268 4.00016 9.13914 4.00016 12.3342C4.00016 18.0651 8.30711 23.2941 14.3513 26.9121C15.3671 27.5202 16.6333 27.5202 17.6491 26.9121C23.6932 23.2941 28.0002 18.0651 28.0002 12.3342C28.0002 9.13914 26.3247 7.07268 24.3075 6.32456C22.2945 5.57803 19.6834 6.04911 17.592 8.51134C16.7631 9.48722 15.2372 9.48722 14.4083 8.51134C12.3169 6.04911 9.70585 5.57803 7.69286 6.32456Z" fill="url(#paint1_linear_1384_57788)"/>
<defs>
<linearGradient id="paint0_linear_1384_57788" x1="16.0002" y1="3.3324" x2="16.0002" y2="30.0348" gradientUnits="userSpaceOnUse">
<stop stop-color="#ED3984" stop-opacity="0.64"/>
<stop offset="1" stop-color="#ED3984" stop-opacity="0.16"/>
</linearGradient>
<linearGradient id="paint1_linear_1384_57788" x1="16.0002" y1="3.3324" x2="16.0002" y2="30.0348" gradientUnits="userSpaceOnUse">
<stop stop-color="white" stop-opacity="0.64"/>
<stop offset="1" stop-color="white" stop-opacity="0.16"/>
</linearGradient>
</defs>
</svg>
