<svg width="20" height="20" viewBox="0 0 20 20" fill="none" xmlns="http://www.w3.org/2000/svg">
<path fill-rule="evenodd" clip-rule="evenodd" d="M0.527277 2.76511C0 3.82035 0 5.1969 0 7.95V12.05C0 14.8031 0 16.1796 0.527277 17.2349C1.01124 18.2035 1.79654 18.9888 2.76511 19.4727C3.82035 20 5.1969 20 7.95 20H9.37669V14.1774H7.25793C7.07502 14.1774 6.92659 14.0291 6.92659 13.8461V11.1745C6.92659 10.9914 7.07485 10.843 7.25793 10.843H9.37669V8.9991C9.37669 6.56962 10.9066 4.99995 13.2741 4.99995L15.3813 5.00333C15.5641 5.00367 15.7122 5.15193 15.7122 5.33468V7.81538C15.7122 7.9983 15.5639 8.14673 15.381 8.14673L13.9614 8.14723C12.9828 8.14723 12.8038 8.52862 12.8038 9.2799V10.843H15.2819C15.3698 10.843 15.4544 10.878 15.5164 10.9402C15.5784 11.0024 15.6134 11.0866 15.6134 11.1745L15.6124 13.8461C15.6124 14.0291 15.4642 14.1774 15.2811 14.1774H12.8038V19.9995C15.0637 19.9952 16.2807 19.9495 17.2349 19.4727C18.2035 18.9888 18.9888 18.2035 19.4727 17.2349C20 16.1796 20 14.8031 20 12.05V7.95C20 5.1969 20 3.82035 19.4727 2.76511C18.9888 1.79654 18.2035 1.01124 17.2349 0.527277C16.1796 0 14.8031 0 12.05 0H7.95C5.1969 0 3.82035 0 2.76511 0.527277C1.79654 1.01124 1.01124 1.79654 0.527277 2.76511Z" fill="white"/>
</svg>
