<svg width="20" height="20" viewBox="0 0 20 20" fill="none" xmlns="http://www.w3.org/2000/svg">
<path fill-rule="evenodd" clip-rule="evenodd" d="M0.527277 2.76511C0 3.82035 0 5.1969 0 7.95V12.05C0 14.8031 0 16.1796 0.527277 17.2349C1.01124 18.2035 1.79654 18.9888 2.76511 19.4727C3.82035 20 5.1969 20 7.95 20H12.05C14.8031 20 16.1796 20 17.2349 19.4727C18.2035 18.9888 18.9888 18.2035 19.4727 17.2349C20 16.1796 20 14.8031 20 12.05V7.95C20 5.1969 20 3.82035 19.4727 2.76511C18.9888 1.79654 18.2035 1.01124 17.2349 0.527277C16.1796 0 14.8031 0 12.05 0H7.95C5.1969 0 3.82035 0 2.76511 0.527277C1.79654 1.01124 1.01124 1.79654 0.527277 2.76511ZM16.5378 4.66201C16.5378 5.32475 16.0006 5.86201 15.3378 5.86201C14.6751 5.86201 14.1378 5.32475 14.1378 4.66201C14.1378 3.99927 14.6751 3.46201 15.3378 3.46201C16.0006 3.46201 16.5378 3.99927 16.5378 4.66201ZM4.86411 9.99996C4.86411 7.16367 7.16338 4.8644 9.99967 4.8644C11.3617 4.8644 12.6679 5.40547 13.6311 6.36857C14.5942 7.33168 15.1352 8.63793 15.1352 9.99996C15.1352 12.8362 12.836 15.1355 9.99967 15.1355C7.16338 15.1355 4.86411 12.8362 4.86411 9.99996ZM6.66665 9.99974C6.66665 11.8407 8.15903 13.3331 9.99998 13.3331C11.8409 13.3331 13.3333 11.8407 13.3333 9.99974C13.3333 8.15879 11.8409 6.66641 9.99998 6.66641C8.15903 6.66641 6.66665 8.15879 6.66665 9.99974Z" fill="white"/>
</svg>
