<svg width="20" height="20" viewBox="0 0 20 20" fill="none" xmlns="http://www.w3.org/2000/svg">
<path fill-rule="evenodd" clip-rule="evenodd" d="M0.527277 2.76511C0 3.82035 0 5.1969 0 7.95V12.05C0 14.8031 0 16.1796 0.527277 17.2349C1.01124 18.2035 1.79654 18.9888 2.76511 19.4727C3.82035 20 5.1969 20 7.95 20H12.05C14.8031 20 16.1796 20 17.2349 19.4727C18.2035 18.9888 18.9888 18.2035 19.4727 17.2349C20 16.1796 20 14.8031 20 12.05V7.95C20 5.1969 20 3.82035 19.4727 2.76511C18.9888 1.79654 18.2035 1.01124 17.2349 0.527277C16.1796 0 14.8031 0 12.05 0H7.95C5.1969 0 3.82035 0 2.76511 0.527277C1.79654 1.01124 1.01124 1.79654 0.527277 2.76511ZM5.09135 14.1607C5.74553 14.6861 7.2129 14.9998 9.0166 14.9998C12.2454 14.9998 14.8722 12.1377 14.8722 8.61965V8.55785C15.2899 8.35897 15.6087 7.9665 15.7772 7.43877C15.8018 7.36184 15.7807 7.27872 15.7223 7.22203C15.6643 7.16538 15.579 7.14638 15.5022 7.17299L15.1384 7.29804C15.3525 7.03974 15.5108 6.76995 15.5941 6.51419C15.6182 6.43964 15.5963 6.35706 15.5383 6.30401C15.4796 6.2504 15.3951 6.2356 15.3216 6.2661C14.8114 6.47919 14.36 6.66477 14.001 6.77578C13.9876 6.77997 13.9739 6.77815 13.9602 6.77049C13.674 6.61081 12.9574 6.24404 12.4487 6.24987C11.1618 6.27339 10.1145 7.36895 10.1145 8.6922V8.76457C8.21951 8.39908 7.17209 7.85603 6.03831 6.67096L5.86117 6.48576L5.74333 6.71307C5.12776 7.89924 5.56419 8.96235 6.28351 9.67839C5.96475 9.62972 5.73327 9.52745 5.53839 9.3581C5.46449 9.29359 5.35667 9.28556 5.27397 9.33842C5.19181 9.39055 5.1543 9.48808 5.18083 9.58105C5.42292 10.4343 6.07124 11.1351 6.75562 11.5538C6.42496 11.5534 6.15286 11.5168 5.87929 11.3416C5.79969 11.2906 5.69612 11.2958 5.62183 11.3544C5.54809 11.4126 5.5197 11.5112 5.55119 11.5995C5.88478 12.5329 6.5084 13.0238 7.54228 13.1461C7.0107 13.4556 6.32139 13.7003 5.24487 13.7227C5.13971 13.725 5.0472 13.7925 5.01321 13.8917C4.97919 13.9888 5.01053 14.0967 5.09135 14.1607Z" fill="white"/>
</svg>
