<svg width="214" height="224" viewBox="0 0 214 224" fill="none" xmlns="http://www.w3.org/2000/svg">
<g opacity="0.4" filter="url(#filter0_f_3127_1157)">
<circle cx="90.6207" cy="100.621" r="78.6207" fill="url(#paint0_radial_3127_1157)"/>
</g>
<ellipse cx="90.9153" cy="124.668" rx="42.4884" ry="18.8837" fill="url(#paint1_linear_3127_1157)"/>
<path d="M131.83 124.668C131.83 126.763 130.881 128.878 128.925 130.933C126.961 132.997 124.044 134.927 120.32 136.583C112.875 139.891 102.481 141.978 90.9153 141.978C79.3499 141.978 68.9551 139.891 61.5106 136.583C57.7863 134.927 54.8699 132.997 52.9058 130.933C50.9494 128.878 50.0005 126.763 50.0005 124.668C50.0005 122.572 50.9494 120.458 52.9058 118.402C54.8699 116.338 57.7863 114.408 61.5106 112.753C68.9551 109.444 79.3499 107.358 90.9153 107.358C102.481 107.358 112.875 109.444 120.32 112.753C124.044 114.408 126.961 116.338 128.925 118.402C130.881 120.458 131.83 122.572 131.83 124.668Z" stroke="url(#paint2_linear_3127_1157)" stroke-width="3.14729"/>
<path d="M90.4794 101.794C61.158 101.794 37.3883 112.553 37.3883 125.825C37.3883 139.097 61.158 149.856 90.4794 149.856" stroke="url(#paint3_linear_3127_1157)" stroke-width="0.61693"/>
<ellipse cx="2.24707" cy="2.24806" rx="2.24707" ry="2.24806" transform="matrix(-0.97512 -0.221678 0.267304 -0.963612 92.204 152.631)" fill="white"/>
<path d="M90.7625 101.283C120.084 101.283 143.854 90.5239 143.854 77.2519C143.854 63.9799 120.084 53.2209 90.7625 53.2209" stroke="url(#paint4_linear_3127_1157)" stroke-width="0.61693"/>
<ellipse cx="2.24707" cy="2.24806" rx="2.24707" ry="2.24806" transform="matrix(0.97512 0.221678 -0.267304 0.963612 89.0381 50.6641)" fill="white"/>
<ellipse cx="90.9153" cy="101.063" rx="42.4884" ry="18.8837" fill="url(#paint5_linear_3127_1157)"/>
<path d="M131.83 101.063C131.83 103.158 130.881 105.273 128.925 107.329C126.961 109.393 124.044 111.323 120.32 112.978C112.875 116.287 102.481 118.373 90.9153 118.373C79.3499 118.373 68.9551 116.287 61.5106 112.978C57.7863 111.323 54.8699 109.393 52.9058 107.329C50.9494 105.273 50.0005 103.158 50.0005 101.063C50.0005 98.9679 50.9494 96.8533 52.9058 94.7976C54.8699 92.7338 57.7863 90.8036 61.5106 89.1483C68.9551 85.8397 79.3499 83.7531 90.9153 83.7531C102.481 83.7531 112.875 85.8397 120.32 89.1483C124.044 90.8036 126.961 92.7338 128.925 94.7976C130.881 96.8533 131.83 98.9679 131.83 101.063Z" stroke="url(#paint6_linear_3127_1157)" stroke-width="3.14729"/>
<ellipse cx="90.9153" cy="77.4582" rx="42.4884" ry="18.8837" transform="rotate(-180 90.9153 77.4582)" fill="url(#paint7_linear_3127_1157)"/>
<path d="M131.83 77.4585C131.83 79.5538 130.881 81.6683 128.925 83.7241C126.961 85.7879 124.044 87.7181 120.32 89.3733C112.875 92.682 102.481 94.7686 90.9153 94.7686C79.3499 94.7686 68.9551 92.682 61.5106 89.3733C57.7863 87.7181 54.8699 85.7879 52.9058 83.7241C50.9494 81.6683 50.0005 79.5538 50.0005 77.4585C50.0005 75.3632 50.9494 73.2487 52.9058 71.193C54.8699 69.1291 57.7863 67.1989 61.5106 65.5437C68.9551 62.235 79.3499 60.1484 90.9153 60.1484C102.481 60.1484 112.875 62.235 120.32 65.5437C124.044 67.1989 126.961 69.1291 128.925 71.193C130.881 73.2487 131.83 75.3632 131.83 77.4585Z" stroke="url(#paint8_linear_3127_1157)" stroke-width="3.14729"/>
<path fill-rule="evenodd" clip-rule="evenodd" d="M72.9393 73.7972C72.9393 73.3626 72.587 73.0104 72.1525 73.0104C71.7179 73.0104 71.3657 73.3626 71.3657 73.7972L71.3657 75.5279L70.1421 74.3044C69.8348 73.9971 69.3366 73.9971 69.0293 74.3044C68.7221 74.6116 68.7221 75.1098 69.0293 75.4171L70.2706 76.6584L68.5045 76.6584C68.0699 76.6584 67.7177 77.0107 67.7177 77.4452C67.7177 77.8798 68.0699 78.232 68.5045 78.232L70.2966 78.232L69.0294 79.4993C68.7221 79.8065 68.7221 80.3047 69.0294 80.612C69.3367 80.9193 69.8349 80.9193 70.1421 80.612L71.3915 79.3626L71.3915 81.1192C71.3915 81.5537 71.7438 81.906 72.1783 81.906C72.6129 81.906 72.9651 81.5537 72.9651 81.1192V79.3886L74.1885 80.612C74.4958 80.9193 74.9939 80.9193 75.3012 80.612C75.6085 80.3047 75.6085 79.8065 75.3012 79.4993L74.0599 78.258L75.8263 78.258C76.2609 78.258 76.6131 77.9057 76.6131 77.4711C76.6131 77.0366 76.2609 76.6843 75.8263 76.6843L74.0339 76.6843L75.3012 75.4171C75.6084 75.1098 75.6084 74.6116 75.3012 74.3044C74.9939 73.9971 74.4957 73.9971 74.1884 74.3044L72.9393 75.5535L72.9393 73.7972ZM84.6515 73.0104C85.0861 73.0104 85.4383 73.3626 85.4383 73.7972V75.5534L86.6874 74.3044C86.9947 73.9971 87.4929 73.9971 87.8001 74.3044C88.1074 74.6116 88.1074 75.1098 87.8001 75.4171L86.5329 76.6843L88.3253 76.6843C88.7599 76.6843 89.1122 77.0366 89.1122 77.4711C89.1122 77.9057 88.7599 78.258 88.3253 78.258L86.559 78.258L87.8003 79.4993C88.1075 79.8065 88.1075 80.3047 87.8003 80.612C87.493 80.9193 86.9948 80.9193 86.6875 80.612L85.4641 79.3886V81.1192C85.4641 81.5537 85.1119 81.906 84.6773 81.906C84.2428 81.906 83.8905 81.5537 83.8905 81.1192V79.3627L82.6412 80.612C82.3339 80.9193 81.8357 80.9193 81.5284 80.612C81.2212 80.3047 81.2212 79.8065 81.5284 79.4993L82.7957 78.232L81.0035 78.232C80.5689 78.232 80.2167 77.8798 80.2167 77.4452C80.2167 77.0107 80.5689 76.6584 81.0035 76.6584L82.7696 76.6584L81.5283 75.4171C81.2211 75.1098 81.2211 74.6116 81.5283 74.3044C81.8356 73.9971 82.3338 73.9971 82.6411 74.3044L83.8647 75.528V73.7972C83.8647 73.3626 84.217 73.0104 84.6515 73.0104ZM97.1503 73.0104C97.5849 73.0104 97.9371 73.3626 97.9371 73.7972V75.5535L99.1862 74.3044C99.4935 73.9971 99.9917 73.9971 100.299 74.3044C100.606 74.6116 100.606 75.1098 100.299 75.4171L99.0317 76.6843L100.824 76.6843C101.259 76.6843 101.611 77.0366 101.611 77.4711C101.611 77.9057 101.259 78.258 100.824 78.258L99.0577 78.258L100.299 79.4993C100.606 79.8065 100.606 80.3047 100.299 80.612C99.9917 80.9193 99.4936 80.9193 99.1863 80.612L97.9629 79.3886V81.1192C97.9629 81.5537 97.6107 81.906 97.1761 81.906C96.7416 81.906 96.3893 81.5537 96.3893 81.1192V79.3626L95.1399 80.612C94.8327 80.9193 94.3345 80.9193 94.0272 80.612C93.7199 80.3047 93.7199 79.8065 94.0272 79.4993L95.2944 78.232L93.5023 78.232C93.0677 78.232 92.7155 77.8798 92.7155 77.4452C92.7155 77.0107 93.0677 76.6584 93.5023 76.6584L95.2685 76.6584L94.0272 75.4171C93.7199 75.1098 93.7199 74.6116 94.0272 74.3044C94.3344 73.9971 94.8326 73.9971 95.1399 74.3044L96.3635 75.5279V73.7972C96.3635 73.3626 96.7158 73.0104 97.1503 73.0104ZM109.649 73.0104C110.084 73.0104 110.436 73.3626 110.436 73.7972V75.5535L111.685 74.3044C111.993 73.9971 112.491 73.9971 112.798 74.3044C113.105 74.6116 113.105 75.1098 112.798 75.4171L111.531 76.6843L113.323 76.6843C113.758 76.6843 114.11 77.0366 114.11 77.4711C114.11 77.9057 113.758 78.258 113.323 78.258L111.557 78.258L112.798 79.4993C113.105 79.8065 113.105 80.3047 112.798 80.612C112.491 80.9193 111.993 80.9193 111.685 80.612L110.462 79.3886V81.1192C110.462 81.5537 110.11 81.906 109.675 81.906C109.241 81.906 108.888 81.5537 108.888 81.1192V79.3627L107.639 80.612C107.332 80.9193 106.834 80.9193 106.526 80.612C106.219 80.3047 106.219 79.8065 106.526 79.4993L107.793 78.232L106.001 78.232C105.567 78.232 105.215 77.8798 105.215 77.4452C105.215 77.0107 105.567 76.6584 106.001 76.6584L107.767 76.6584L106.526 75.4171C106.219 75.1098 106.219 74.6116 106.526 74.3044C106.833 73.9971 107.332 73.9971 107.639 74.3044L108.863 75.5279L108.863 73.7972C108.863 73.3626 109.215 73.0104 109.649 73.0104Z" fill="#FED9FF"/>
<defs>
<filter id="filter0_f_3127_1157" x="-31.8206" y="-21.8206" width="244.883" height="244.883" filterUnits="userSpaceOnUse" color-interpolation-filters="sRGB">
<feFlood flood-opacity="0" result="BackgroundImageFix"/>
<feBlend mode="normal" in="SourceGraphic" in2="BackgroundImageFix" result="shape"/>
<feGaussianBlur stdDeviation="21.9103" result="effect1_foregroundBlur_3127_1157"/>
</filter>
<radialGradient id="paint0_radial_3127_1157" cx="0" cy="0" r="1" gradientUnits="userSpaceOnUse" gradientTransform="translate(82.7584 108.003) rotate(78.0338) scale(83.0133 78.7268)">
<stop stop-color="#D45CF2"/>
<stop offset="0.526042" stop-color="#A030B3"/>
<stop offset="1" stop-color="#A030B3" stop-opacity="0.32"/>
</radialGradient>
<linearGradient id="paint1_linear_3127_1157" x1="85.8511" y1="100.102" x2="101.467" y2="148.902" gradientUnits="userSpaceOnUse">
<stop stop-color="#FF4FAD"/>
<stop offset="1" stop-color="#5F1B80"/>
</linearGradient>
<linearGradient id="paint2_linear_3127_1157" x1="60.6528" y1="108.379" x2="67.7687" y2="151.659" gradientUnits="userSpaceOnUse">
<stop stop-color="white"/>
<stop offset="0.274663" stop-color="#FDA4FF"/>
<stop offset="0.554549" stop-color="#FF67C2"/>
<stop offset="1" stop-color="#FFA6F1"/>
</linearGradient>
<linearGradient id="paint3_linear_3127_1157" x1="82.841" y1="146.555" x2="65.8077" y2="95.6926" gradientUnits="userSpaceOnUse">
<stop stop-color="white"/>
<stop offset="0.15625" stop-color="#FDA4FF"/>
<stop offset="0.40625" stop-color="#FF67C2"/>
<stop offset="1" stop-color="#FFA6F1"/>
</linearGradient>
<linearGradient id="paint4_linear_3127_1157" x1="98.4008" y1="56.5227" x2="115.434" y2="107.385" gradientUnits="userSpaceOnUse">
<stop stop-color="white"/>
<stop offset="0.15625" stop-color="#FDA4FF"/>
<stop offset="0.40625" stop-color="#FF67C2"/>
<stop offset="1" stop-color="#FFA6F1"/>
</linearGradient>
<linearGradient id="paint5_linear_3127_1157" x1="64.3791" y1="58.6216" x2="90.7312" y2="119.866" gradientUnits="userSpaceOnUse">
<stop stop-color="#FF4FAD"/>
<stop offset="1" stop-color="#5F1B80"/>
</linearGradient>
<linearGradient id="paint6_linear_3127_1157" x1="60.6528" y1="84.774" x2="67.7687" y2="128.054" gradientUnits="userSpaceOnUse">
<stop stop-color="white"/>
<stop offset="0.15625" stop-color="#FDA4FF"/>
<stop offset="0.953937" stop-color="#FF67C2"/>
<stop offset="1" stop-color="#FFA6F1"/>
</linearGradient>
<linearGradient id="paint7_linear_3127_1157" x1="81.0954" y1="58.4749" x2="114.28" y2="93.611" gradientUnits="userSpaceOnUse">
<stop stop-color="#FF4FAD"/>
<stop offset="1" stop-color="#5F1B80"/>
</linearGradient>
<linearGradient id="paint8_linear_3127_1157" x1="121.719" y1="92.0497" x2="108.321" y2="44.701" gradientUnits="userSpaceOnUse">
<stop stop-color="white"/>
<stop offset="0.15625" stop-color="#FDA4FF"/>
<stop offset="0.40625" stop-color="#FF67C2"/>
<stop offset="1" stop-color="#FFA6F1"/>
</linearGradient>
</defs>
</svg>
