<svg width="16" height="8" viewBox="0 0 16 8" fill="none" xmlns="http://www.w3.org/2000/svg">
<path fill-rule="evenodd" clip-rule="evenodd" d="M11.8425 1.29984L12.982 2.4491C13.2257 2.69649 13.0433 3.09654 12.689 3.09654H0.667383C0.221927 3.09654 0 3.44484 0 3.87292V3.86649C0 4.29458 0.221927 4.6478 0.667383 4.6478H12.6769C13.0328 4.6478 13.2144 5.06566 12.9675 5.31149L11.8344 6.44223C11.5282 6.75044 11.5415 7.24175 11.8653 7.5335C11.8662 7.53433 11.867 7.53535 11.8675 7.53647C11.8681 7.5376 11.8688 7.53861 11.8697 7.53943C12.191 7.82662 12.6935 7.81117 12.9957 7.50452L15.5595 4.91592C16.1494 4.31567 16.1462 3.37716 15.5538 2.78L13.0126 0.237928C12.7108 -0.0660779 12.2113 -0.0807563 11.8909 0.205405L11.8829 0.213347C11.5585 0.502614 11.5407 0.989627 11.8425 1.29984Z" fill="white"/>
</svg>
